<mxfile host="app.diagrams.net" modified="2023-11-02T04:33:49.184Z" agent="Mozilla/5.0 (Windows NT 10.0; Win64; x64) AppleWebKit/537.36 (KHTML, like Gecko) Chrome/118.0.0.0 Safari/537.36" etag="4P23vfVy6yeInY2n8lXx" version="22.0.8" type="device">
  <diagram name="Page-1" id="XT_g3y-kIJOM8Zh_R4_U">
    <mxGraphModel dx="808" dy="411" grid="1" gridSize="10" guides="1" tooltips="1" connect="1" arrows="1" fold="1" page="1" pageScale="1" pageWidth="850" pageHeight="1100" math="0" shadow="0">
      <root>
        <mxCell id="0" />
        <mxCell id="1" parent="0" />
        <mxCell id="dEg01nQ7GNnwLnujvM-Q-1" value="" style="rounded=1;whiteSpace=wrap;html=1;" vertex="1" parent="1">
          <mxGeometry x="10" y="290" width="10" height="10" as="geometry" />
        </mxCell>
        <mxCell id="dEg01nQ7GNnwLnujvM-Q-2" value="" style="rounded=1;whiteSpace=wrap;html=1;" vertex="1" parent="1">
          <mxGeometry x="20" y="260" width="10" height="10" as="geometry" />
        </mxCell>
        <mxCell id="dEg01nQ7GNnwLnujvM-Q-3" value="" style="rounded=1;whiteSpace=wrap;html=1;" vertex="1" parent="1">
          <mxGeometry x="30" y="260" width="10" height="10" as="geometry" />
        </mxCell>
        <mxCell id="dEg01nQ7GNnwLnujvM-Q-4" value="" style="rounded=1;whiteSpace=wrap;html=1;" vertex="1" parent="1">
          <mxGeometry x="20" y="250" width="10" height="10" as="geometry" />
        </mxCell>
        <mxCell id="dEg01nQ7GNnwLnujvM-Q-5" value="" style="rounded=1;whiteSpace=wrap;html=1;" vertex="1" parent="1">
          <mxGeometry x="30" y="250" width="10" height="10" as="geometry" />
        </mxCell>
        <mxCell id="dEg01nQ7GNnwLnujvM-Q-6" value="" style="rounded=1;whiteSpace=wrap;html=1;" vertex="1" parent="1">
          <mxGeometry x="20" y="240" width="10" height="10" as="geometry" />
        </mxCell>
        <mxCell id="dEg01nQ7GNnwLnujvM-Q-7" value="" style="rounded=1;whiteSpace=wrap;html=1;" vertex="1" parent="1">
          <mxGeometry x="30" y="240" width="10" height="10" as="geometry" />
        </mxCell>
        <mxCell id="dEg01nQ7GNnwLnujvM-Q-8" value="" style="rounded=1;whiteSpace=wrap;html=1;" vertex="1" parent="1">
          <mxGeometry x="20" y="230" width="10" height="10" as="geometry" />
        </mxCell>
        <mxCell id="dEg01nQ7GNnwLnujvM-Q-9" value="" style="rounded=1;whiteSpace=wrap;html=1;" vertex="1" parent="1">
          <mxGeometry x="30" y="230" width="10" height="10" as="geometry" />
        </mxCell>
        <mxCell id="dEg01nQ7GNnwLnujvM-Q-10" value="" style="rounded=1;whiteSpace=wrap;html=1;" vertex="1" parent="1">
          <mxGeometry x="30" y="220" width="10" height="10" as="geometry" />
        </mxCell>
        <mxCell id="dEg01nQ7GNnwLnujvM-Q-11" value="" style="rounded=1;whiteSpace=wrap;html=1;" vertex="1" parent="1">
          <mxGeometry x="20" y="220" width="10" height="10" as="geometry" />
        </mxCell>
        <mxCell id="dEg01nQ7GNnwLnujvM-Q-72" value="" style="rounded=1;whiteSpace=wrap;html=1;" vertex="1" parent="1">
          <mxGeometry x="40" y="260" width="10" height="10" as="geometry" />
        </mxCell>
        <mxCell id="dEg01nQ7GNnwLnujvM-Q-73" value="" style="rounded=1;whiteSpace=wrap;html=1;" vertex="1" parent="1">
          <mxGeometry x="50" y="260" width="10" height="10" as="geometry" />
        </mxCell>
        <mxCell id="dEg01nQ7GNnwLnujvM-Q-74" value="" style="rounded=1;whiteSpace=wrap;html=1;" vertex="1" parent="1">
          <mxGeometry x="40" y="250" width="10" height="10" as="geometry" />
        </mxCell>
        <mxCell id="dEg01nQ7GNnwLnujvM-Q-75" value="" style="rounded=1;whiteSpace=wrap;html=1;" vertex="1" parent="1">
          <mxGeometry x="50" y="250" width="10" height="10" as="geometry" />
        </mxCell>
        <mxCell id="dEg01nQ7GNnwLnujvM-Q-76" value="" style="rounded=1;whiteSpace=wrap;html=1;" vertex="1" parent="1">
          <mxGeometry x="40" y="240" width="10" height="10" as="geometry" />
        </mxCell>
        <mxCell id="dEg01nQ7GNnwLnujvM-Q-77" value="" style="rounded=1;whiteSpace=wrap;html=1;" vertex="1" parent="1">
          <mxGeometry x="50" y="240" width="10" height="10" as="geometry" />
        </mxCell>
        <mxCell id="dEg01nQ7GNnwLnujvM-Q-78" value="" style="rounded=1;whiteSpace=wrap;html=1;" vertex="1" parent="1">
          <mxGeometry x="40" y="230" width="10" height="10" as="geometry" />
        </mxCell>
        <mxCell id="dEg01nQ7GNnwLnujvM-Q-79" value="" style="rounded=1;whiteSpace=wrap;html=1;" vertex="1" parent="1">
          <mxGeometry x="50" y="230" width="10" height="10" as="geometry" />
        </mxCell>
        <mxCell id="dEg01nQ7GNnwLnujvM-Q-80" value="" style="rounded=1;whiteSpace=wrap;html=1;" vertex="1" parent="1">
          <mxGeometry x="50" y="220" width="10" height="10" as="geometry" />
        </mxCell>
        <mxCell id="dEg01nQ7GNnwLnujvM-Q-81" value="" style="rounded=1;whiteSpace=wrap;html=1;" vertex="1" parent="1">
          <mxGeometry x="40" y="220" width="10" height="10" as="geometry" />
        </mxCell>
        <mxCell id="dEg01nQ7GNnwLnujvM-Q-82" value="" style="rounded=1;whiteSpace=wrap;html=1;" vertex="1" parent="1">
          <mxGeometry x="60" y="260" width="10" height="10" as="geometry" />
        </mxCell>
        <mxCell id="dEg01nQ7GNnwLnujvM-Q-83" value="" style="rounded=1;whiteSpace=wrap;html=1;" vertex="1" parent="1">
          <mxGeometry x="70" y="260" width="10" height="10" as="geometry" />
        </mxCell>
        <mxCell id="dEg01nQ7GNnwLnujvM-Q-84" value="" style="rounded=1;whiteSpace=wrap;html=1;" vertex="1" parent="1">
          <mxGeometry x="60" y="250" width="10" height="10" as="geometry" />
        </mxCell>
        <mxCell id="dEg01nQ7GNnwLnujvM-Q-85" value="" style="rounded=1;whiteSpace=wrap;html=1;" vertex="1" parent="1">
          <mxGeometry x="70" y="250" width="10" height="10" as="geometry" />
        </mxCell>
        <mxCell id="dEg01nQ7GNnwLnujvM-Q-86" value="" style="rounded=1;whiteSpace=wrap;html=1;" vertex="1" parent="1">
          <mxGeometry x="60" y="240" width="10" height="10" as="geometry" />
        </mxCell>
        <mxCell id="dEg01nQ7GNnwLnujvM-Q-87" value="" style="rounded=1;whiteSpace=wrap;html=1;" vertex="1" parent="1">
          <mxGeometry x="70" y="240" width="10" height="10" as="geometry" />
        </mxCell>
        <mxCell id="dEg01nQ7GNnwLnujvM-Q-88" value="" style="rounded=1;whiteSpace=wrap;html=1;" vertex="1" parent="1">
          <mxGeometry x="60" y="230" width="10" height="10" as="geometry" />
        </mxCell>
        <mxCell id="dEg01nQ7GNnwLnujvM-Q-89" value="" style="rounded=1;whiteSpace=wrap;html=1;" vertex="1" parent="1">
          <mxGeometry x="70" y="230" width="10" height="10" as="geometry" />
        </mxCell>
        <mxCell id="dEg01nQ7GNnwLnujvM-Q-90" value="" style="rounded=1;whiteSpace=wrap;html=1;" vertex="1" parent="1">
          <mxGeometry x="70" y="220" width="10" height="10" as="geometry" />
        </mxCell>
        <mxCell id="dEg01nQ7GNnwLnujvM-Q-91" value="" style="rounded=1;whiteSpace=wrap;html=1;" vertex="1" parent="1">
          <mxGeometry x="60" y="220" width="10" height="10" as="geometry" />
        </mxCell>
        <mxCell id="dEg01nQ7GNnwLnujvM-Q-102" value="" style="rounded=1;whiteSpace=wrap;html=1;" vertex="1" parent="1">
          <mxGeometry x="80" y="260" width="10" height="10" as="geometry" />
        </mxCell>
        <mxCell id="dEg01nQ7GNnwLnujvM-Q-103" value="" style="rounded=1;whiteSpace=wrap;html=1;" vertex="1" parent="1">
          <mxGeometry x="90" y="260" width="10" height="10" as="geometry" />
        </mxCell>
        <mxCell id="dEg01nQ7GNnwLnujvM-Q-104" value="" style="rounded=1;whiteSpace=wrap;html=1;" vertex="1" parent="1">
          <mxGeometry x="80" y="250" width="10" height="10" as="geometry" />
        </mxCell>
        <mxCell id="dEg01nQ7GNnwLnujvM-Q-105" value="" style="rounded=1;whiteSpace=wrap;html=1;" vertex="1" parent="1">
          <mxGeometry x="90" y="250" width="10" height="10" as="geometry" />
        </mxCell>
        <mxCell id="dEg01nQ7GNnwLnujvM-Q-106" value="" style="rounded=1;whiteSpace=wrap;html=1;" vertex="1" parent="1">
          <mxGeometry x="80" y="240" width="10" height="10" as="geometry" />
        </mxCell>
        <mxCell id="dEg01nQ7GNnwLnujvM-Q-107" value="" style="rounded=1;whiteSpace=wrap;html=1;" vertex="1" parent="1">
          <mxGeometry x="90" y="240" width="10" height="10" as="geometry" />
        </mxCell>
        <mxCell id="dEg01nQ7GNnwLnujvM-Q-108" value="" style="rounded=1;whiteSpace=wrap;html=1;" vertex="1" parent="1">
          <mxGeometry x="80" y="230" width="10" height="10" as="geometry" />
        </mxCell>
        <mxCell id="dEg01nQ7GNnwLnujvM-Q-109" value="" style="rounded=1;whiteSpace=wrap;html=1;" vertex="1" parent="1">
          <mxGeometry x="90" y="230" width="10" height="10" as="geometry" />
        </mxCell>
        <mxCell id="dEg01nQ7GNnwLnujvM-Q-110" value="" style="rounded=1;whiteSpace=wrap;html=1;" vertex="1" parent="1">
          <mxGeometry x="90" y="220" width="10" height="10" as="geometry" />
        </mxCell>
        <mxCell id="dEg01nQ7GNnwLnujvM-Q-111" value="" style="rounded=1;whiteSpace=wrap;html=1;" vertex="1" parent="1">
          <mxGeometry x="80" y="220" width="10" height="10" as="geometry" />
        </mxCell>
        <mxCell id="dEg01nQ7GNnwLnujvM-Q-112" value="" style="rounded=1;whiteSpace=wrap;html=1;" vertex="1" parent="1">
          <mxGeometry x="100" y="260" width="10" height="10" as="geometry" />
        </mxCell>
        <mxCell id="dEg01nQ7GNnwLnujvM-Q-113" value="" style="rounded=1;whiteSpace=wrap;html=1;" vertex="1" parent="1">
          <mxGeometry x="110" y="260" width="10" height="10" as="geometry" />
        </mxCell>
        <mxCell id="dEg01nQ7GNnwLnujvM-Q-114" value="" style="rounded=1;whiteSpace=wrap;html=1;" vertex="1" parent="1">
          <mxGeometry x="100" y="250" width="10" height="10" as="geometry" />
        </mxCell>
        <mxCell id="dEg01nQ7GNnwLnujvM-Q-115" value="" style="rounded=1;whiteSpace=wrap;html=1;" vertex="1" parent="1">
          <mxGeometry x="110" y="250" width="10" height="10" as="geometry" />
        </mxCell>
        <mxCell id="dEg01nQ7GNnwLnujvM-Q-116" value="" style="rounded=1;whiteSpace=wrap;html=1;" vertex="1" parent="1">
          <mxGeometry x="100" y="240" width="10" height="10" as="geometry" />
        </mxCell>
        <mxCell id="dEg01nQ7GNnwLnujvM-Q-117" value="" style="rounded=1;whiteSpace=wrap;html=1;" vertex="1" parent="1">
          <mxGeometry x="110" y="240" width="10" height="10" as="geometry" />
        </mxCell>
        <mxCell id="dEg01nQ7GNnwLnujvM-Q-118" value="" style="rounded=1;whiteSpace=wrap;html=1;" vertex="1" parent="1">
          <mxGeometry x="100" y="230" width="10" height="10" as="geometry" />
        </mxCell>
        <mxCell id="dEg01nQ7GNnwLnujvM-Q-119" value="" style="rounded=1;whiteSpace=wrap;html=1;" vertex="1" parent="1">
          <mxGeometry x="110" y="230" width="10" height="10" as="geometry" />
        </mxCell>
        <mxCell id="dEg01nQ7GNnwLnujvM-Q-120" value="" style="rounded=1;whiteSpace=wrap;html=1;" vertex="1" parent="1">
          <mxGeometry x="110" y="220" width="10" height="10" as="geometry" />
        </mxCell>
        <mxCell id="dEg01nQ7GNnwLnujvM-Q-121" value="" style="rounded=1;whiteSpace=wrap;html=1;" vertex="1" parent="1">
          <mxGeometry x="100" y="220" width="10" height="10" as="geometry" />
        </mxCell>
        <mxCell id="dEg01nQ7GNnwLnujvM-Q-122" value="" style="rounded=1;whiteSpace=wrap;html=1;" vertex="1" parent="1">
          <mxGeometry x="120" y="260" width="10" height="10" as="geometry" />
        </mxCell>
        <mxCell id="dEg01nQ7GNnwLnujvM-Q-123" value="" style="rounded=1;whiteSpace=wrap;html=1;" vertex="1" parent="1">
          <mxGeometry x="130" y="260" width="10" height="10" as="geometry" />
        </mxCell>
        <mxCell id="dEg01nQ7GNnwLnujvM-Q-124" value="" style="rounded=1;whiteSpace=wrap;html=1;" vertex="1" parent="1">
          <mxGeometry x="120" y="250" width="10" height="10" as="geometry" />
        </mxCell>
        <mxCell id="dEg01nQ7GNnwLnujvM-Q-125" value="" style="rounded=1;whiteSpace=wrap;html=1;" vertex="1" parent="1">
          <mxGeometry x="130" y="250" width="10" height="10" as="geometry" />
        </mxCell>
        <mxCell id="dEg01nQ7GNnwLnujvM-Q-126" value="" style="rounded=1;whiteSpace=wrap;html=1;" vertex="1" parent="1">
          <mxGeometry x="120" y="240" width="10" height="10" as="geometry" />
        </mxCell>
        <mxCell id="dEg01nQ7GNnwLnujvM-Q-127" value="" style="rounded=1;whiteSpace=wrap;html=1;" vertex="1" parent="1">
          <mxGeometry x="130" y="240" width="10" height="10" as="geometry" />
        </mxCell>
        <mxCell id="dEg01nQ7GNnwLnujvM-Q-128" value="" style="rounded=1;whiteSpace=wrap;html=1;" vertex="1" parent="1">
          <mxGeometry x="120" y="230" width="10" height="10" as="geometry" />
        </mxCell>
        <mxCell id="dEg01nQ7GNnwLnujvM-Q-129" value="" style="rounded=1;whiteSpace=wrap;html=1;" vertex="1" parent="1">
          <mxGeometry x="130" y="230" width="10" height="10" as="geometry" />
        </mxCell>
        <mxCell id="dEg01nQ7GNnwLnujvM-Q-130" value="" style="rounded=1;whiteSpace=wrap;html=1;" vertex="1" parent="1">
          <mxGeometry x="130" y="220" width="10" height="10" as="geometry" />
        </mxCell>
        <mxCell id="dEg01nQ7GNnwLnujvM-Q-131" value="" style="rounded=1;whiteSpace=wrap;html=1;" vertex="1" parent="1">
          <mxGeometry x="120" y="220" width="10" height="10" as="geometry" />
        </mxCell>
        <mxCell id="dEg01nQ7GNnwLnujvM-Q-132" value="" style="rounded=1;whiteSpace=wrap;html=1;" vertex="1" parent="1">
          <mxGeometry x="140" y="260" width="10" height="10" as="geometry" />
        </mxCell>
        <mxCell id="dEg01nQ7GNnwLnujvM-Q-133" value="" style="rounded=1;whiteSpace=wrap;html=1;" vertex="1" parent="1">
          <mxGeometry x="150" y="260" width="10" height="10" as="geometry" />
        </mxCell>
        <mxCell id="dEg01nQ7GNnwLnujvM-Q-134" value="" style="rounded=1;whiteSpace=wrap;html=1;" vertex="1" parent="1">
          <mxGeometry x="140" y="250" width="10" height="10" as="geometry" />
        </mxCell>
        <mxCell id="dEg01nQ7GNnwLnujvM-Q-135" value="" style="rounded=1;whiteSpace=wrap;html=1;" vertex="1" parent="1">
          <mxGeometry x="150" y="250" width="10" height="10" as="geometry" />
        </mxCell>
        <mxCell id="dEg01nQ7GNnwLnujvM-Q-136" value="" style="rounded=1;whiteSpace=wrap;html=1;" vertex="1" parent="1">
          <mxGeometry x="140" y="240" width="10" height="10" as="geometry" />
        </mxCell>
        <mxCell id="dEg01nQ7GNnwLnujvM-Q-137" value="" style="rounded=1;whiteSpace=wrap;html=1;" vertex="1" parent="1">
          <mxGeometry x="150" y="240" width="10" height="10" as="geometry" />
        </mxCell>
        <mxCell id="dEg01nQ7GNnwLnujvM-Q-138" value="" style="rounded=1;whiteSpace=wrap;html=1;" vertex="1" parent="1">
          <mxGeometry x="140" y="230" width="10" height="10" as="geometry" />
        </mxCell>
        <mxCell id="dEg01nQ7GNnwLnujvM-Q-139" value="" style="rounded=1;whiteSpace=wrap;html=1;" vertex="1" parent="1">
          <mxGeometry x="150" y="230" width="10" height="10" as="geometry" />
        </mxCell>
        <mxCell id="dEg01nQ7GNnwLnujvM-Q-140" value="" style="rounded=1;whiteSpace=wrap;html=1;" vertex="1" parent="1">
          <mxGeometry x="150" y="220" width="10" height="10" as="geometry" />
        </mxCell>
        <mxCell id="dEg01nQ7GNnwLnujvM-Q-141" value="" style="rounded=1;whiteSpace=wrap;html=1;" vertex="1" parent="1">
          <mxGeometry x="140" y="220" width="10" height="10" as="geometry" />
        </mxCell>
        <mxCell id="dEg01nQ7GNnwLnujvM-Q-142" value="" style="rounded=1;whiteSpace=wrap;html=1;" vertex="1" parent="1">
          <mxGeometry x="160" y="260" width="10" height="10" as="geometry" />
        </mxCell>
        <mxCell id="dEg01nQ7GNnwLnujvM-Q-143" value="" style="rounded=1;whiteSpace=wrap;html=1;" vertex="1" parent="1">
          <mxGeometry x="170" y="260" width="10" height="10" as="geometry" />
        </mxCell>
        <mxCell id="dEg01nQ7GNnwLnujvM-Q-144" value="" style="rounded=1;whiteSpace=wrap;html=1;" vertex="1" parent="1">
          <mxGeometry x="160" y="250" width="10" height="10" as="geometry" />
        </mxCell>
        <mxCell id="dEg01nQ7GNnwLnujvM-Q-145" value="" style="rounded=1;whiteSpace=wrap;html=1;" vertex="1" parent="1">
          <mxGeometry x="170" y="250" width="10" height="10" as="geometry" />
        </mxCell>
        <mxCell id="dEg01nQ7GNnwLnujvM-Q-146" value="" style="rounded=1;whiteSpace=wrap;html=1;" vertex="1" parent="1">
          <mxGeometry x="160" y="240" width="10" height="10" as="geometry" />
        </mxCell>
        <mxCell id="dEg01nQ7GNnwLnujvM-Q-147" value="" style="rounded=1;whiteSpace=wrap;html=1;" vertex="1" parent="1">
          <mxGeometry x="170" y="240" width="10" height="10" as="geometry" />
        </mxCell>
        <mxCell id="dEg01nQ7GNnwLnujvM-Q-148" value="" style="rounded=1;whiteSpace=wrap;html=1;" vertex="1" parent="1">
          <mxGeometry x="160" y="230" width="10" height="10" as="geometry" />
        </mxCell>
        <mxCell id="dEg01nQ7GNnwLnujvM-Q-149" value="" style="rounded=1;whiteSpace=wrap;html=1;" vertex="1" parent="1">
          <mxGeometry x="170" y="230" width="10" height="10" as="geometry" />
        </mxCell>
        <mxCell id="dEg01nQ7GNnwLnujvM-Q-150" value="" style="rounded=1;whiteSpace=wrap;html=1;" vertex="1" parent="1">
          <mxGeometry x="170" y="220" width="10" height="10" as="geometry" />
        </mxCell>
        <mxCell id="dEg01nQ7GNnwLnujvM-Q-151" value="" style="rounded=1;whiteSpace=wrap;html=1;" vertex="1" parent="1">
          <mxGeometry x="160" y="220" width="10" height="10" as="geometry" />
        </mxCell>
        <mxCell id="dEg01nQ7GNnwLnujvM-Q-152" value="" style="rounded=1;whiteSpace=wrap;html=1;" vertex="1" parent="1">
          <mxGeometry x="180" y="260" width="10" height="10" as="geometry" />
        </mxCell>
        <mxCell id="dEg01nQ7GNnwLnujvM-Q-153" value="" style="rounded=1;whiteSpace=wrap;html=1;" vertex="1" parent="1">
          <mxGeometry x="190" y="260" width="10" height="10" as="geometry" />
        </mxCell>
        <mxCell id="dEg01nQ7GNnwLnujvM-Q-154" value="" style="rounded=1;whiteSpace=wrap;html=1;" vertex="1" parent="1">
          <mxGeometry x="180" y="250" width="10" height="10" as="geometry" />
        </mxCell>
        <mxCell id="dEg01nQ7GNnwLnujvM-Q-155" value="" style="rounded=1;whiteSpace=wrap;html=1;" vertex="1" parent="1">
          <mxGeometry x="190" y="250" width="10" height="10" as="geometry" />
        </mxCell>
        <mxCell id="dEg01nQ7GNnwLnujvM-Q-156" value="" style="rounded=1;whiteSpace=wrap;html=1;" vertex="1" parent="1">
          <mxGeometry x="180" y="240" width="10" height="10" as="geometry" />
        </mxCell>
        <mxCell id="dEg01nQ7GNnwLnujvM-Q-157" value="" style="rounded=1;whiteSpace=wrap;html=1;" vertex="1" parent="1">
          <mxGeometry x="190" y="240" width="10" height="10" as="geometry" />
        </mxCell>
        <mxCell id="dEg01nQ7GNnwLnujvM-Q-158" value="" style="rounded=1;whiteSpace=wrap;html=1;" vertex="1" parent="1">
          <mxGeometry x="180" y="230" width="10" height="10" as="geometry" />
        </mxCell>
        <mxCell id="dEg01nQ7GNnwLnujvM-Q-159" value="" style="rounded=1;whiteSpace=wrap;html=1;" vertex="1" parent="1">
          <mxGeometry x="190" y="230" width="10" height="10" as="geometry" />
        </mxCell>
        <mxCell id="dEg01nQ7GNnwLnujvM-Q-160" value="" style="rounded=1;whiteSpace=wrap;html=1;" vertex="1" parent="1">
          <mxGeometry x="190" y="220" width="10" height="10" as="geometry" />
        </mxCell>
        <mxCell id="dEg01nQ7GNnwLnujvM-Q-161" value="" style="rounded=1;whiteSpace=wrap;html=1;" vertex="1" parent="1">
          <mxGeometry x="180" y="220" width="10" height="10" as="geometry" />
        </mxCell>
        <mxCell id="dEg01nQ7GNnwLnujvM-Q-162" value="" style="rounded=1;whiteSpace=wrap;html=1;" vertex="1" parent="1">
          <mxGeometry x="200" y="260" width="10" height="10" as="geometry" />
        </mxCell>
        <mxCell id="dEg01nQ7GNnwLnujvM-Q-163" value="" style="rounded=1;whiteSpace=wrap;html=1;" vertex="1" parent="1">
          <mxGeometry x="210" y="260" width="10" height="10" as="geometry" />
        </mxCell>
        <mxCell id="dEg01nQ7GNnwLnujvM-Q-164" value="" style="rounded=1;whiteSpace=wrap;html=1;" vertex="1" parent="1">
          <mxGeometry x="200" y="250" width="10" height="10" as="geometry" />
        </mxCell>
        <mxCell id="dEg01nQ7GNnwLnujvM-Q-165" value="" style="rounded=1;whiteSpace=wrap;html=1;" vertex="1" parent="1">
          <mxGeometry x="210" y="250" width="10" height="10" as="geometry" />
        </mxCell>
        <mxCell id="dEg01nQ7GNnwLnujvM-Q-166" value="" style="rounded=1;whiteSpace=wrap;html=1;" vertex="1" parent="1">
          <mxGeometry x="200" y="240" width="10" height="10" as="geometry" />
        </mxCell>
        <mxCell id="dEg01nQ7GNnwLnujvM-Q-167" value="" style="rounded=1;whiteSpace=wrap;html=1;" vertex="1" parent="1">
          <mxGeometry x="210" y="240" width="10" height="10" as="geometry" />
        </mxCell>
        <mxCell id="dEg01nQ7GNnwLnujvM-Q-168" value="" style="rounded=1;whiteSpace=wrap;html=1;" vertex="1" parent="1">
          <mxGeometry x="200" y="230" width="10" height="10" as="geometry" />
        </mxCell>
        <mxCell id="dEg01nQ7GNnwLnujvM-Q-169" value="" style="rounded=1;whiteSpace=wrap;html=1;" vertex="1" parent="1">
          <mxGeometry x="210" y="230" width="10" height="10" as="geometry" />
        </mxCell>
        <mxCell id="dEg01nQ7GNnwLnujvM-Q-170" value="" style="rounded=1;whiteSpace=wrap;html=1;" vertex="1" parent="1">
          <mxGeometry x="210" y="220" width="10" height="10" as="geometry" />
        </mxCell>
        <mxCell id="dEg01nQ7GNnwLnujvM-Q-171" value="" style="rounded=1;whiteSpace=wrap;html=1;" vertex="1" parent="1">
          <mxGeometry x="200" y="220" width="10" height="10" as="geometry" />
        </mxCell>
        <mxCell id="dEg01nQ7GNnwLnujvM-Q-172" value="" style="rounded=1;whiteSpace=wrap;html=1;" vertex="1" parent="1">
          <mxGeometry x="220" y="260" width="10" height="10" as="geometry" />
        </mxCell>
        <mxCell id="dEg01nQ7GNnwLnujvM-Q-173" value="" style="rounded=1;whiteSpace=wrap;html=1;" vertex="1" parent="1">
          <mxGeometry x="230" y="260" width="10" height="10" as="geometry" />
        </mxCell>
        <mxCell id="dEg01nQ7GNnwLnujvM-Q-174" value="" style="rounded=1;whiteSpace=wrap;html=1;" vertex="1" parent="1">
          <mxGeometry x="220" y="250" width="10" height="10" as="geometry" />
        </mxCell>
        <mxCell id="dEg01nQ7GNnwLnujvM-Q-175" value="" style="rounded=1;whiteSpace=wrap;html=1;" vertex="1" parent="1">
          <mxGeometry x="230" y="250" width="10" height="10" as="geometry" />
        </mxCell>
        <mxCell id="dEg01nQ7GNnwLnujvM-Q-176" value="" style="rounded=1;whiteSpace=wrap;html=1;" vertex="1" parent="1">
          <mxGeometry x="220" y="240" width="10" height="10" as="geometry" />
        </mxCell>
        <mxCell id="dEg01nQ7GNnwLnujvM-Q-177" value="" style="rounded=1;whiteSpace=wrap;html=1;" vertex="1" parent="1">
          <mxGeometry x="230" y="240" width="10" height="10" as="geometry" />
        </mxCell>
        <mxCell id="dEg01nQ7GNnwLnujvM-Q-178" value="" style="rounded=1;whiteSpace=wrap;html=1;" vertex="1" parent="1">
          <mxGeometry x="220" y="230" width="10" height="10" as="geometry" />
        </mxCell>
        <mxCell id="dEg01nQ7GNnwLnujvM-Q-179" value="" style="rounded=1;whiteSpace=wrap;html=1;" vertex="1" parent="1">
          <mxGeometry x="230" y="230" width="10" height="10" as="geometry" />
        </mxCell>
        <mxCell id="dEg01nQ7GNnwLnujvM-Q-180" value="" style="rounded=1;whiteSpace=wrap;html=1;" vertex="1" parent="1">
          <mxGeometry x="230" y="220" width="10" height="10" as="geometry" />
        </mxCell>
        <mxCell id="dEg01nQ7GNnwLnujvM-Q-181" value="" style="rounded=1;whiteSpace=wrap;html=1;" vertex="1" parent="1">
          <mxGeometry x="220" y="220" width="10" height="10" as="geometry" />
        </mxCell>
        <mxCell id="dEg01nQ7GNnwLnujvM-Q-182" value="" style="rounded=1;whiteSpace=wrap;html=1;" vertex="1" parent="1">
          <mxGeometry x="240" y="260" width="10" height="10" as="geometry" />
        </mxCell>
        <mxCell id="dEg01nQ7GNnwLnujvM-Q-183" value="" style="rounded=1;whiteSpace=wrap;html=1;" vertex="1" parent="1">
          <mxGeometry x="250" y="260" width="10" height="10" as="geometry" />
        </mxCell>
        <mxCell id="dEg01nQ7GNnwLnujvM-Q-184" value="" style="rounded=1;whiteSpace=wrap;html=1;" vertex="1" parent="1">
          <mxGeometry x="240" y="250" width="10" height="10" as="geometry" />
        </mxCell>
        <mxCell id="dEg01nQ7GNnwLnujvM-Q-185" value="" style="rounded=1;whiteSpace=wrap;html=1;" vertex="1" parent="1">
          <mxGeometry x="250" y="250" width="10" height="10" as="geometry" />
        </mxCell>
        <mxCell id="dEg01nQ7GNnwLnujvM-Q-186" value="" style="rounded=1;whiteSpace=wrap;html=1;" vertex="1" parent="1">
          <mxGeometry x="240" y="240" width="10" height="10" as="geometry" />
        </mxCell>
        <mxCell id="dEg01nQ7GNnwLnujvM-Q-187" value="" style="rounded=1;whiteSpace=wrap;html=1;" vertex="1" parent="1">
          <mxGeometry x="250" y="240" width="10" height="10" as="geometry" />
        </mxCell>
        <mxCell id="dEg01nQ7GNnwLnujvM-Q-188" value="" style="rounded=1;whiteSpace=wrap;html=1;" vertex="1" parent="1">
          <mxGeometry x="240" y="230" width="10" height="10" as="geometry" />
        </mxCell>
        <mxCell id="dEg01nQ7GNnwLnujvM-Q-189" value="" style="rounded=1;whiteSpace=wrap;html=1;" vertex="1" parent="1">
          <mxGeometry x="250" y="230" width="10" height="10" as="geometry" />
        </mxCell>
        <mxCell id="dEg01nQ7GNnwLnujvM-Q-190" value="" style="rounded=1;whiteSpace=wrap;html=1;" vertex="1" parent="1">
          <mxGeometry x="250" y="220" width="10" height="10" as="geometry" />
        </mxCell>
        <mxCell id="dEg01nQ7GNnwLnujvM-Q-191" value="" style="rounded=1;whiteSpace=wrap;html=1;" vertex="1" parent="1">
          <mxGeometry x="240" y="220" width="10" height="10" as="geometry" />
        </mxCell>
        <mxCell id="dEg01nQ7GNnwLnujvM-Q-192" value="" style="rounded=1;whiteSpace=wrap;html=1;" vertex="1" parent="1">
          <mxGeometry x="260" y="260" width="10" height="10" as="geometry" />
        </mxCell>
        <mxCell id="dEg01nQ7GNnwLnujvM-Q-193" value="" style="rounded=1;whiteSpace=wrap;html=1;" vertex="1" parent="1">
          <mxGeometry x="270" y="260" width="10" height="10" as="geometry" />
        </mxCell>
        <mxCell id="dEg01nQ7GNnwLnujvM-Q-194" value="" style="rounded=1;whiteSpace=wrap;html=1;" vertex="1" parent="1">
          <mxGeometry x="260" y="250" width="10" height="10" as="geometry" />
        </mxCell>
        <mxCell id="dEg01nQ7GNnwLnujvM-Q-195" value="" style="rounded=1;whiteSpace=wrap;html=1;" vertex="1" parent="1">
          <mxGeometry x="270" y="250" width="10" height="10" as="geometry" />
        </mxCell>
        <mxCell id="dEg01nQ7GNnwLnujvM-Q-196" value="" style="rounded=1;whiteSpace=wrap;html=1;" vertex="1" parent="1">
          <mxGeometry x="260" y="240" width="10" height="10" as="geometry" />
        </mxCell>
        <mxCell id="dEg01nQ7GNnwLnujvM-Q-197" value="" style="rounded=1;whiteSpace=wrap;html=1;" vertex="1" parent="1">
          <mxGeometry x="270" y="240" width="10" height="10" as="geometry" />
        </mxCell>
        <mxCell id="dEg01nQ7GNnwLnujvM-Q-198" value="" style="rounded=1;whiteSpace=wrap;html=1;" vertex="1" parent="1">
          <mxGeometry x="260" y="230" width="10" height="10" as="geometry" />
        </mxCell>
        <mxCell id="dEg01nQ7GNnwLnujvM-Q-199" value="" style="rounded=1;whiteSpace=wrap;html=1;" vertex="1" parent="1">
          <mxGeometry x="270" y="230" width="10" height="10" as="geometry" />
        </mxCell>
        <mxCell id="dEg01nQ7GNnwLnujvM-Q-200" value="" style="rounded=1;whiteSpace=wrap;html=1;" vertex="1" parent="1">
          <mxGeometry x="270" y="220" width="10" height="10" as="geometry" />
        </mxCell>
        <mxCell id="dEg01nQ7GNnwLnujvM-Q-201" value="" style="rounded=1;whiteSpace=wrap;html=1;" vertex="1" parent="1">
          <mxGeometry x="260" y="220" width="10" height="10" as="geometry" />
        </mxCell>
        <mxCell id="dEg01nQ7GNnwLnujvM-Q-202" value="" style="rounded=1;whiteSpace=wrap;html=1;" vertex="1" parent="1">
          <mxGeometry x="280" y="260" width="10" height="10" as="geometry" />
        </mxCell>
        <mxCell id="dEg01nQ7GNnwLnujvM-Q-203" value="" style="rounded=1;whiteSpace=wrap;html=1;" vertex="1" parent="1">
          <mxGeometry x="290" y="260" width="10" height="10" as="geometry" />
        </mxCell>
        <mxCell id="dEg01nQ7GNnwLnujvM-Q-204" value="" style="rounded=1;whiteSpace=wrap;html=1;" vertex="1" parent="1">
          <mxGeometry x="280" y="250" width="10" height="10" as="geometry" />
        </mxCell>
        <mxCell id="dEg01nQ7GNnwLnujvM-Q-205" value="" style="rounded=1;whiteSpace=wrap;html=1;" vertex="1" parent="1">
          <mxGeometry x="290" y="250" width="10" height="10" as="geometry" />
        </mxCell>
        <mxCell id="dEg01nQ7GNnwLnujvM-Q-206" value="" style="rounded=1;whiteSpace=wrap;html=1;" vertex="1" parent="1">
          <mxGeometry x="280" y="240" width="10" height="10" as="geometry" />
        </mxCell>
        <mxCell id="dEg01nQ7GNnwLnujvM-Q-207" value="" style="rounded=1;whiteSpace=wrap;html=1;" vertex="1" parent="1">
          <mxGeometry x="290" y="240" width="10" height="10" as="geometry" />
        </mxCell>
        <mxCell id="dEg01nQ7GNnwLnujvM-Q-208" value="" style="rounded=1;whiteSpace=wrap;html=1;" vertex="1" parent="1">
          <mxGeometry x="280" y="230" width="10" height="10" as="geometry" />
        </mxCell>
        <mxCell id="dEg01nQ7GNnwLnujvM-Q-209" value="" style="rounded=1;whiteSpace=wrap;html=1;" vertex="1" parent="1">
          <mxGeometry x="290" y="230" width="10" height="10" as="geometry" />
        </mxCell>
        <mxCell id="dEg01nQ7GNnwLnujvM-Q-210" value="" style="rounded=1;whiteSpace=wrap;html=1;" vertex="1" parent="1">
          <mxGeometry x="290" y="220" width="10" height="10" as="geometry" />
        </mxCell>
        <mxCell id="dEg01nQ7GNnwLnujvM-Q-211" value="" style="rounded=1;whiteSpace=wrap;html=1;" vertex="1" parent="1">
          <mxGeometry x="280" y="220" width="10" height="10" as="geometry" />
        </mxCell>
        <mxCell id="dEg01nQ7GNnwLnujvM-Q-212" value="" style="rounded=1;whiteSpace=wrap;html=1;" vertex="1" parent="1">
          <mxGeometry x="300" y="260" width="10" height="10" as="geometry" />
        </mxCell>
        <mxCell id="dEg01nQ7GNnwLnujvM-Q-213" value="" style="rounded=1;whiteSpace=wrap;html=1;" vertex="1" parent="1">
          <mxGeometry x="310" y="260" width="10" height="10" as="geometry" />
        </mxCell>
        <mxCell id="dEg01nQ7GNnwLnujvM-Q-214" value="" style="rounded=1;whiteSpace=wrap;html=1;" vertex="1" parent="1">
          <mxGeometry x="300" y="250" width="10" height="10" as="geometry" />
        </mxCell>
        <mxCell id="dEg01nQ7GNnwLnujvM-Q-215" value="" style="rounded=1;whiteSpace=wrap;html=1;" vertex="1" parent="1">
          <mxGeometry x="310" y="250" width="10" height="10" as="geometry" />
        </mxCell>
        <mxCell id="dEg01nQ7GNnwLnujvM-Q-216" value="" style="rounded=1;whiteSpace=wrap;html=1;" vertex="1" parent="1">
          <mxGeometry x="300" y="240" width="10" height="10" as="geometry" />
        </mxCell>
        <mxCell id="dEg01nQ7GNnwLnujvM-Q-217" value="" style="rounded=1;whiteSpace=wrap;html=1;" vertex="1" parent="1">
          <mxGeometry x="310" y="240" width="10" height="10" as="geometry" />
        </mxCell>
        <mxCell id="dEg01nQ7GNnwLnujvM-Q-218" value="" style="rounded=1;whiteSpace=wrap;html=1;" vertex="1" parent="1">
          <mxGeometry x="300" y="230" width="10" height="10" as="geometry" />
        </mxCell>
        <mxCell id="dEg01nQ7GNnwLnujvM-Q-219" value="" style="rounded=1;whiteSpace=wrap;html=1;" vertex="1" parent="1">
          <mxGeometry x="310" y="230" width="10" height="10" as="geometry" />
        </mxCell>
        <mxCell id="dEg01nQ7GNnwLnujvM-Q-220" value="" style="rounded=1;whiteSpace=wrap;html=1;" vertex="1" parent="1">
          <mxGeometry x="310" y="220" width="10" height="10" as="geometry" />
        </mxCell>
        <mxCell id="dEg01nQ7GNnwLnujvM-Q-221" value="" style="rounded=1;whiteSpace=wrap;html=1;" vertex="1" parent="1">
          <mxGeometry x="300" y="220" width="10" height="10" as="geometry" />
        </mxCell>
        <mxCell id="dEg01nQ7GNnwLnujvM-Q-222" value="" style="rounded=1;whiteSpace=wrap;html=1;" vertex="1" parent="1">
          <mxGeometry x="320" y="260" width="10" height="10" as="geometry" />
        </mxCell>
        <mxCell id="dEg01nQ7GNnwLnujvM-Q-223" value="" style="rounded=1;whiteSpace=wrap;html=1;" vertex="1" parent="1">
          <mxGeometry x="330" y="260" width="10" height="10" as="geometry" />
        </mxCell>
        <mxCell id="dEg01nQ7GNnwLnujvM-Q-224" value="" style="rounded=1;whiteSpace=wrap;html=1;" vertex="1" parent="1">
          <mxGeometry x="320" y="250" width="10" height="10" as="geometry" />
        </mxCell>
        <mxCell id="dEg01nQ7GNnwLnujvM-Q-225" value="" style="rounded=1;whiteSpace=wrap;html=1;" vertex="1" parent="1">
          <mxGeometry x="330" y="250" width="10" height="10" as="geometry" />
        </mxCell>
        <mxCell id="dEg01nQ7GNnwLnujvM-Q-226" value="" style="rounded=1;whiteSpace=wrap;html=1;" vertex="1" parent="1">
          <mxGeometry x="320" y="240" width="10" height="10" as="geometry" />
        </mxCell>
        <mxCell id="dEg01nQ7GNnwLnujvM-Q-227" value="" style="rounded=1;whiteSpace=wrap;html=1;" vertex="1" parent="1">
          <mxGeometry x="330" y="240" width="10" height="10" as="geometry" />
        </mxCell>
        <mxCell id="dEg01nQ7GNnwLnujvM-Q-228" value="" style="rounded=1;whiteSpace=wrap;html=1;" vertex="1" parent="1">
          <mxGeometry x="320" y="230" width="10" height="10" as="geometry" />
        </mxCell>
        <mxCell id="dEg01nQ7GNnwLnujvM-Q-229" value="" style="rounded=1;whiteSpace=wrap;html=1;" vertex="1" parent="1">
          <mxGeometry x="330" y="230" width="10" height="10" as="geometry" />
        </mxCell>
        <mxCell id="dEg01nQ7GNnwLnujvM-Q-230" value="" style="rounded=1;whiteSpace=wrap;html=1;" vertex="1" parent="1">
          <mxGeometry x="330" y="220" width="10" height="10" as="geometry" />
        </mxCell>
        <mxCell id="dEg01nQ7GNnwLnujvM-Q-231" value="" style="rounded=1;whiteSpace=wrap;html=1;" vertex="1" parent="1">
          <mxGeometry x="320" y="220" width="10" height="10" as="geometry" />
        </mxCell>
        <mxCell id="dEg01nQ7GNnwLnujvM-Q-272" value="" style="rounded=1;whiteSpace=wrap;html=1;" vertex="1" parent="1">
          <mxGeometry x="340" y="260" width="10" height="10" as="geometry" />
        </mxCell>
        <mxCell id="dEg01nQ7GNnwLnujvM-Q-273" value="" style="rounded=1;whiteSpace=wrap;html=1;" vertex="1" parent="1">
          <mxGeometry x="350" y="260" width="10" height="10" as="geometry" />
        </mxCell>
        <mxCell id="dEg01nQ7GNnwLnujvM-Q-274" value="" style="rounded=1;whiteSpace=wrap;html=1;" vertex="1" parent="1">
          <mxGeometry x="340" y="250" width="10" height="10" as="geometry" />
        </mxCell>
        <mxCell id="dEg01nQ7GNnwLnujvM-Q-275" value="" style="rounded=1;whiteSpace=wrap;html=1;" vertex="1" parent="1">
          <mxGeometry x="350" y="250" width="10" height="10" as="geometry" />
        </mxCell>
        <mxCell id="dEg01nQ7GNnwLnujvM-Q-276" value="" style="rounded=1;whiteSpace=wrap;html=1;" vertex="1" parent="1">
          <mxGeometry x="340" y="240" width="10" height="10" as="geometry" />
        </mxCell>
        <mxCell id="dEg01nQ7GNnwLnujvM-Q-277" value="" style="rounded=1;whiteSpace=wrap;html=1;" vertex="1" parent="1">
          <mxGeometry x="350" y="240" width="10" height="10" as="geometry" />
        </mxCell>
        <mxCell id="dEg01nQ7GNnwLnujvM-Q-278" value="" style="rounded=1;whiteSpace=wrap;html=1;" vertex="1" parent="1">
          <mxGeometry x="340" y="230" width="10" height="10" as="geometry" />
        </mxCell>
        <mxCell id="dEg01nQ7GNnwLnujvM-Q-279" value="" style="rounded=1;whiteSpace=wrap;html=1;" vertex="1" parent="1">
          <mxGeometry x="350" y="230" width="10" height="10" as="geometry" />
        </mxCell>
        <mxCell id="dEg01nQ7GNnwLnujvM-Q-280" value="" style="rounded=1;whiteSpace=wrap;html=1;" vertex="1" parent="1">
          <mxGeometry x="350" y="220" width="10" height="10" as="geometry" />
        </mxCell>
        <mxCell id="dEg01nQ7GNnwLnujvM-Q-281" value="" style="rounded=1;whiteSpace=wrap;html=1;" vertex="1" parent="1">
          <mxGeometry x="340" y="220" width="10" height="10" as="geometry" />
        </mxCell>
        <mxCell id="dEg01nQ7GNnwLnujvM-Q-282" value="" style="rounded=1;whiteSpace=wrap;html=1;" vertex="1" parent="1">
          <mxGeometry x="360" y="260" width="10" height="10" as="geometry" />
        </mxCell>
        <mxCell id="dEg01nQ7GNnwLnujvM-Q-283" value="" style="rounded=1;whiteSpace=wrap;html=1;" vertex="1" parent="1">
          <mxGeometry x="370" y="260" width="10" height="10" as="geometry" />
        </mxCell>
        <mxCell id="dEg01nQ7GNnwLnujvM-Q-284" value="" style="rounded=1;whiteSpace=wrap;html=1;" vertex="1" parent="1">
          <mxGeometry x="360" y="250" width="10" height="10" as="geometry" />
        </mxCell>
        <mxCell id="dEg01nQ7GNnwLnujvM-Q-285" value="" style="rounded=1;whiteSpace=wrap;html=1;" vertex="1" parent="1">
          <mxGeometry x="370" y="250" width="10" height="10" as="geometry" />
        </mxCell>
        <mxCell id="dEg01nQ7GNnwLnujvM-Q-286" value="" style="rounded=1;whiteSpace=wrap;html=1;" vertex="1" parent="1">
          <mxGeometry x="360" y="240" width="10" height="10" as="geometry" />
        </mxCell>
        <mxCell id="dEg01nQ7GNnwLnujvM-Q-287" value="" style="rounded=1;whiteSpace=wrap;html=1;" vertex="1" parent="1">
          <mxGeometry x="370" y="240" width="10" height="10" as="geometry" />
        </mxCell>
        <mxCell id="dEg01nQ7GNnwLnujvM-Q-288" value="" style="rounded=1;whiteSpace=wrap;html=1;" vertex="1" parent="1">
          <mxGeometry x="360" y="230" width="10" height="10" as="geometry" />
        </mxCell>
        <mxCell id="dEg01nQ7GNnwLnujvM-Q-289" value="" style="rounded=1;whiteSpace=wrap;html=1;" vertex="1" parent="1">
          <mxGeometry x="370" y="230" width="10" height="10" as="geometry" />
        </mxCell>
        <mxCell id="dEg01nQ7GNnwLnujvM-Q-290" value="" style="rounded=1;whiteSpace=wrap;html=1;" vertex="1" parent="1">
          <mxGeometry x="370" y="220" width="10" height="10" as="geometry" />
        </mxCell>
        <mxCell id="dEg01nQ7GNnwLnujvM-Q-291" value="" style="rounded=1;whiteSpace=wrap;html=1;" vertex="1" parent="1">
          <mxGeometry x="360" y="220" width="10" height="10" as="geometry" />
        </mxCell>
        <mxCell id="dEg01nQ7GNnwLnujvM-Q-292" value="" style="rounded=1;whiteSpace=wrap;html=1;" vertex="1" parent="1">
          <mxGeometry x="380" y="260" width="10" height="10" as="geometry" />
        </mxCell>
        <mxCell id="dEg01nQ7GNnwLnujvM-Q-293" value="" style="rounded=1;whiteSpace=wrap;html=1;" vertex="1" parent="1">
          <mxGeometry x="390" y="260" width="10" height="10" as="geometry" />
        </mxCell>
        <mxCell id="dEg01nQ7GNnwLnujvM-Q-294" value="" style="rounded=1;whiteSpace=wrap;html=1;" vertex="1" parent="1">
          <mxGeometry x="380" y="250" width="10" height="10" as="geometry" />
        </mxCell>
        <mxCell id="dEg01nQ7GNnwLnujvM-Q-295" value="" style="rounded=1;whiteSpace=wrap;html=1;" vertex="1" parent="1">
          <mxGeometry x="390" y="250" width="10" height="10" as="geometry" />
        </mxCell>
        <mxCell id="dEg01nQ7GNnwLnujvM-Q-296" value="" style="rounded=1;whiteSpace=wrap;html=1;" vertex="1" parent="1">
          <mxGeometry x="380" y="240" width="10" height="10" as="geometry" />
        </mxCell>
        <mxCell id="dEg01nQ7GNnwLnujvM-Q-297" value="" style="rounded=1;whiteSpace=wrap;html=1;" vertex="1" parent="1">
          <mxGeometry x="390" y="240" width="10" height="10" as="geometry" />
        </mxCell>
        <mxCell id="dEg01nQ7GNnwLnujvM-Q-298" value="" style="rounded=1;whiteSpace=wrap;html=1;" vertex="1" parent="1">
          <mxGeometry x="380" y="230" width="10" height="10" as="geometry" />
        </mxCell>
        <mxCell id="dEg01nQ7GNnwLnujvM-Q-299" value="" style="rounded=1;whiteSpace=wrap;html=1;" vertex="1" parent="1">
          <mxGeometry x="390" y="230" width="10" height="10" as="geometry" />
        </mxCell>
        <mxCell id="dEg01nQ7GNnwLnujvM-Q-300" value="" style="rounded=1;whiteSpace=wrap;html=1;" vertex="1" parent="1">
          <mxGeometry x="390" y="220" width="10" height="10" as="geometry" />
        </mxCell>
        <mxCell id="dEg01nQ7GNnwLnujvM-Q-301" value="" style="rounded=1;whiteSpace=wrap;html=1;" vertex="1" parent="1">
          <mxGeometry x="380" y="220" width="10" height="10" as="geometry" />
        </mxCell>
        <mxCell id="dEg01nQ7GNnwLnujvM-Q-302" value="" style="rounded=1;whiteSpace=wrap;html=1;" vertex="1" parent="1">
          <mxGeometry x="400" y="260" width="10" height="10" as="geometry" />
        </mxCell>
        <mxCell id="dEg01nQ7GNnwLnujvM-Q-303" value="" style="rounded=1;whiteSpace=wrap;html=1;" vertex="1" parent="1">
          <mxGeometry x="410" y="260" width="10" height="10" as="geometry" />
        </mxCell>
        <mxCell id="dEg01nQ7GNnwLnujvM-Q-304" value="" style="rounded=1;whiteSpace=wrap;html=1;" vertex="1" parent="1">
          <mxGeometry x="400" y="250" width="10" height="10" as="geometry" />
        </mxCell>
        <mxCell id="dEg01nQ7GNnwLnujvM-Q-305" value="" style="rounded=1;whiteSpace=wrap;html=1;" vertex="1" parent="1">
          <mxGeometry x="410" y="250" width="10" height="10" as="geometry" />
        </mxCell>
        <mxCell id="dEg01nQ7GNnwLnujvM-Q-306" value="" style="rounded=1;whiteSpace=wrap;html=1;" vertex="1" parent="1">
          <mxGeometry x="400" y="240" width="10" height="10" as="geometry" />
        </mxCell>
        <mxCell id="dEg01nQ7GNnwLnujvM-Q-307" value="" style="rounded=1;whiteSpace=wrap;html=1;" vertex="1" parent="1">
          <mxGeometry x="410" y="240" width="10" height="10" as="geometry" />
        </mxCell>
        <mxCell id="dEg01nQ7GNnwLnujvM-Q-308" value="" style="rounded=1;whiteSpace=wrap;html=1;" vertex="1" parent="1">
          <mxGeometry x="400" y="230" width="10" height="10" as="geometry" />
        </mxCell>
        <mxCell id="dEg01nQ7GNnwLnujvM-Q-309" value="" style="rounded=1;whiteSpace=wrap;html=1;" vertex="1" parent="1">
          <mxGeometry x="410" y="230" width="10" height="10" as="geometry" />
        </mxCell>
        <mxCell id="dEg01nQ7GNnwLnujvM-Q-311" value="" style="rounded=1;whiteSpace=wrap;html=1;" vertex="1" parent="1">
          <mxGeometry x="400" y="220" width="10" height="10" as="geometry" />
        </mxCell>
        <mxCell id="dEg01nQ7GNnwLnujvM-Q-712" value="" style="rounded=1;whiteSpace=wrap;html=1;" vertex="1" parent="1">
          <mxGeometry x="20" y="360" width="10" height="10" as="geometry" />
        </mxCell>
        <mxCell id="dEg01nQ7GNnwLnujvM-Q-713" value="" style="rounded=1;whiteSpace=wrap;html=1;" vertex="1" parent="1">
          <mxGeometry x="30" y="360" width="10" height="10" as="geometry" />
        </mxCell>
        <mxCell id="dEg01nQ7GNnwLnujvM-Q-714" value="" style="rounded=1;whiteSpace=wrap;html=1;" vertex="1" parent="1">
          <mxGeometry x="20" y="350" width="10" height="10" as="geometry" />
        </mxCell>
        <mxCell id="dEg01nQ7GNnwLnujvM-Q-715" value="" style="rounded=1;whiteSpace=wrap;html=1;" vertex="1" parent="1">
          <mxGeometry x="30" y="350" width="10" height="10" as="geometry" />
        </mxCell>
        <mxCell id="dEg01nQ7GNnwLnujvM-Q-716" value="" style="rounded=1;whiteSpace=wrap;html=1;" vertex="1" parent="1">
          <mxGeometry x="20" y="340" width="10" height="10" as="geometry" />
        </mxCell>
        <mxCell id="dEg01nQ7GNnwLnujvM-Q-717" value="" style="rounded=1;whiteSpace=wrap;html=1;" vertex="1" parent="1">
          <mxGeometry x="30" y="340" width="10" height="10" as="geometry" />
        </mxCell>
        <mxCell id="dEg01nQ7GNnwLnujvM-Q-718" value="" style="rounded=1;whiteSpace=wrap;html=1;" vertex="1" parent="1">
          <mxGeometry x="20" y="330" width="10" height="10" as="geometry" />
        </mxCell>
        <mxCell id="dEg01nQ7GNnwLnujvM-Q-719" value="" style="rounded=1;whiteSpace=wrap;html=1;" vertex="1" parent="1">
          <mxGeometry x="30" y="330" width="10" height="10" as="geometry" />
        </mxCell>
        <mxCell id="dEg01nQ7GNnwLnujvM-Q-720" value="" style="rounded=1;whiteSpace=wrap;html=1;" vertex="1" parent="1">
          <mxGeometry x="30" y="320" width="10" height="10" as="geometry" />
        </mxCell>
        <mxCell id="dEg01nQ7GNnwLnujvM-Q-721" value="" style="rounded=1;whiteSpace=wrap;html=1;" vertex="1" parent="1">
          <mxGeometry x="20" y="320" width="10" height="10" as="geometry" />
        </mxCell>
        <mxCell id="dEg01nQ7GNnwLnujvM-Q-722" value="" style="rounded=1;whiteSpace=wrap;html=1;" vertex="1" parent="1">
          <mxGeometry x="40" y="360" width="10" height="10" as="geometry" />
        </mxCell>
        <mxCell id="dEg01nQ7GNnwLnujvM-Q-723" value="" style="rounded=1;whiteSpace=wrap;html=1;" vertex="1" parent="1">
          <mxGeometry x="50" y="360" width="10" height="10" as="geometry" />
        </mxCell>
        <mxCell id="dEg01nQ7GNnwLnujvM-Q-724" value="" style="rounded=1;whiteSpace=wrap;html=1;" vertex="1" parent="1">
          <mxGeometry x="40" y="350" width="10" height="10" as="geometry" />
        </mxCell>
        <mxCell id="dEg01nQ7GNnwLnujvM-Q-725" value="" style="rounded=1;whiteSpace=wrap;html=1;" vertex="1" parent="1">
          <mxGeometry x="50" y="350" width="10" height="10" as="geometry" />
        </mxCell>
        <mxCell id="dEg01nQ7GNnwLnujvM-Q-726" value="" style="rounded=1;whiteSpace=wrap;html=1;" vertex="1" parent="1">
          <mxGeometry x="40" y="340" width="10" height="10" as="geometry" />
        </mxCell>
        <mxCell id="dEg01nQ7GNnwLnujvM-Q-727" value="" style="rounded=1;whiteSpace=wrap;html=1;" vertex="1" parent="1">
          <mxGeometry x="50" y="340" width="10" height="10" as="geometry" />
        </mxCell>
        <mxCell id="dEg01nQ7GNnwLnujvM-Q-728" value="" style="rounded=1;whiteSpace=wrap;html=1;" vertex="1" parent="1">
          <mxGeometry x="40" y="330" width="10" height="10" as="geometry" />
        </mxCell>
        <mxCell id="dEg01nQ7GNnwLnujvM-Q-729" value="" style="rounded=1;whiteSpace=wrap;html=1;" vertex="1" parent="1">
          <mxGeometry x="50" y="330" width="10" height="10" as="geometry" />
        </mxCell>
        <mxCell id="dEg01nQ7GNnwLnujvM-Q-730" value="" style="rounded=1;whiteSpace=wrap;html=1;" vertex="1" parent="1">
          <mxGeometry x="50" y="320" width="10" height="10" as="geometry" />
        </mxCell>
        <mxCell id="dEg01nQ7GNnwLnujvM-Q-731" value="" style="rounded=1;whiteSpace=wrap;html=1;" vertex="1" parent="1">
          <mxGeometry x="40" y="320" width="10" height="10" as="geometry" />
        </mxCell>
        <mxCell id="dEg01nQ7GNnwLnujvM-Q-732" value="" style="rounded=1;whiteSpace=wrap;html=1;" vertex="1" parent="1">
          <mxGeometry x="60" y="360" width="10" height="10" as="geometry" />
        </mxCell>
        <mxCell id="dEg01nQ7GNnwLnujvM-Q-733" value="" style="rounded=1;whiteSpace=wrap;html=1;" vertex="1" parent="1">
          <mxGeometry x="70" y="360" width="10" height="10" as="geometry" />
        </mxCell>
        <mxCell id="dEg01nQ7GNnwLnujvM-Q-734" value="" style="rounded=1;whiteSpace=wrap;html=1;" vertex="1" parent="1">
          <mxGeometry x="60" y="350" width="10" height="10" as="geometry" />
        </mxCell>
        <mxCell id="dEg01nQ7GNnwLnujvM-Q-735" value="" style="rounded=1;whiteSpace=wrap;html=1;" vertex="1" parent="1">
          <mxGeometry x="70" y="350" width="10" height="10" as="geometry" />
        </mxCell>
        <mxCell id="dEg01nQ7GNnwLnujvM-Q-736" value="" style="rounded=1;whiteSpace=wrap;html=1;" vertex="1" parent="1">
          <mxGeometry x="60" y="340" width="10" height="10" as="geometry" />
        </mxCell>
        <mxCell id="dEg01nQ7GNnwLnujvM-Q-737" value="" style="rounded=1;whiteSpace=wrap;html=1;" vertex="1" parent="1">
          <mxGeometry x="70" y="340" width="10" height="10" as="geometry" />
        </mxCell>
        <mxCell id="dEg01nQ7GNnwLnujvM-Q-738" value="" style="rounded=1;whiteSpace=wrap;html=1;" vertex="1" parent="1">
          <mxGeometry x="60" y="330" width="10" height="10" as="geometry" />
        </mxCell>
        <mxCell id="dEg01nQ7GNnwLnujvM-Q-739" value="" style="rounded=1;whiteSpace=wrap;html=1;" vertex="1" parent="1">
          <mxGeometry x="70" y="330" width="10" height="10" as="geometry" />
        </mxCell>
        <mxCell id="dEg01nQ7GNnwLnujvM-Q-740" value="" style="rounded=1;whiteSpace=wrap;html=1;" vertex="1" parent="1">
          <mxGeometry x="70" y="320" width="10" height="10" as="geometry" />
        </mxCell>
        <mxCell id="dEg01nQ7GNnwLnujvM-Q-741" value="" style="rounded=1;whiteSpace=wrap;html=1;" vertex="1" parent="1">
          <mxGeometry x="60" y="320" width="10" height="10" as="geometry" />
        </mxCell>
        <mxCell id="dEg01nQ7GNnwLnujvM-Q-742" value="" style="rounded=1;whiteSpace=wrap;html=1;" vertex="1" parent="1">
          <mxGeometry x="80" y="360" width="10" height="10" as="geometry" />
        </mxCell>
        <mxCell id="dEg01nQ7GNnwLnujvM-Q-743" value="" style="rounded=1;whiteSpace=wrap;html=1;" vertex="1" parent="1">
          <mxGeometry x="90" y="360" width="10" height="10" as="geometry" />
        </mxCell>
        <mxCell id="dEg01nQ7GNnwLnujvM-Q-744" value="" style="rounded=1;whiteSpace=wrap;html=1;" vertex="1" parent="1">
          <mxGeometry x="80" y="350" width="10" height="10" as="geometry" />
        </mxCell>
        <mxCell id="dEg01nQ7GNnwLnujvM-Q-745" value="" style="rounded=1;whiteSpace=wrap;html=1;" vertex="1" parent="1">
          <mxGeometry x="90" y="350" width="10" height="10" as="geometry" />
        </mxCell>
        <mxCell id="dEg01nQ7GNnwLnujvM-Q-746" value="" style="rounded=1;whiteSpace=wrap;html=1;" vertex="1" parent="1">
          <mxGeometry x="80" y="340" width="10" height="10" as="geometry" />
        </mxCell>
        <mxCell id="dEg01nQ7GNnwLnujvM-Q-747" value="" style="rounded=1;whiteSpace=wrap;html=1;" vertex="1" parent="1">
          <mxGeometry x="90" y="340" width="10" height="10" as="geometry" />
        </mxCell>
        <mxCell id="dEg01nQ7GNnwLnujvM-Q-748" value="" style="rounded=1;whiteSpace=wrap;html=1;" vertex="1" parent="1">
          <mxGeometry x="80" y="330" width="10" height="10" as="geometry" />
        </mxCell>
        <mxCell id="dEg01nQ7GNnwLnujvM-Q-749" value="" style="rounded=1;whiteSpace=wrap;html=1;" vertex="1" parent="1">
          <mxGeometry x="90" y="330" width="10" height="10" as="geometry" />
        </mxCell>
        <mxCell id="dEg01nQ7GNnwLnujvM-Q-750" value="" style="rounded=1;whiteSpace=wrap;html=1;" vertex="1" parent="1">
          <mxGeometry x="90" y="320" width="10" height="10" as="geometry" />
        </mxCell>
        <mxCell id="dEg01nQ7GNnwLnujvM-Q-751" value="" style="rounded=1;whiteSpace=wrap;html=1;" vertex="1" parent="1">
          <mxGeometry x="80" y="320" width="10" height="10" as="geometry" />
        </mxCell>
        <mxCell id="dEg01nQ7GNnwLnujvM-Q-752" value="" style="rounded=1;whiteSpace=wrap;html=1;" vertex="1" parent="1">
          <mxGeometry x="100" y="360" width="10" height="10" as="geometry" />
        </mxCell>
        <mxCell id="dEg01nQ7GNnwLnujvM-Q-753" value="" style="rounded=1;whiteSpace=wrap;html=1;" vertex="1" parent="1">
          <mxGeometry x="110" y="360" width="10" height="10" as="geometry" />
        </mxCell>
        <mxCell id="dEg01nQ7GNnwLnujvM-Q-754" value="" style="rounded=1;whiteSpace=wrap;html=1;" vertex="1" parent="1">
          <mxGeometry x="100" y="350" width="10" height="10" as="geometry" />
        </mxCell>
        <mxCell id="dEg01nQ7GNnwLnujvM-Q-755" value="" style="rounded=1;whiteSpace=wrap;html=1;" vertex="1" parent="1">
          <mxGeometry x="110" y="350" width="10" height="10" as="geometry" />
        </mxCell>
        <mxCell id="dEg01nQ7GNnwLnujvM-Q-756" value="" style="rounded=1;whiteSpace=wrap;html=1;" vertex="1" parent="1">
          <mxGeometry x="100" y="340" width="10" height="10" as="geometry" />
        </mxCell>
        <mxCell id="dEg01nQ7GNnwLnujvM-Q-757" value="" style="rounded=1;whiteSpace=wrap;html=1;" vertex="1" parent="1">
          <mxGeometry x="110" y="340" width="10" height="10" as="geometry" />
        </mxCell>
        <mxCell id="dEg01nQ7GNnwLnujvM-Q-758" value="" style="rounded=1;whiteSpace=wrap;html=1;" vertex="1" parent="1">
          <mxGeometry x="100" y="330" width="10" height="10" as="geometry" />
        </mxCell>
        <mxCell id="dEg01nQ7GNnwLnujvM-Q-759" value="" style="rounded=1;whiteSpace=wrap;html=1;" vertex="1" parent="1">
          <mxGeometry x="110" y="330" width="10" height="10" as="geometry" />
        </mxCell>
        <mxCell id="dEg01nQ7GNnwLnujvM-Q-760" value="" style="rounded=1;whiteSpace=wrap;html=1;" vertex="1" parent="1">
          <mxGeometry x="110" y="320" width="10" height="10" as="geometry" />
        </mxCell>
        <mxCell id="dEg01nQ7GNnwLnujvM-Q-761" value="" style="rounded=1;whiteSpace=wrap;html=1;" vertex="1" parent="1">
          <mxGeometry x="100" y="320" width="10" height="10" as="geometry" />
        </mxCell>
        <mxCell id="dEg01nQ7GNnwLnujvM-Q-762" value="" style="rounded=1;whiteSpace=wrap;html=1;" vertex="1" parent="1">
          <mxGeometry x="120" y="360" width="10" height="10" as="geometry" />
        </mxCell>
        <mxCell id="dEg01nQ7GNnwLnujvM-Q-763" value="" style="rounded=1;whiteSpace=wrap;html=1;" vertex="1" parent="1">
          <mxGeometry x="130" y="360" width="10" height="10" as="geometry" />
        </mxCell>
        <mxCell id="dEg01nQ7GNnwLnujvM-Q-764" value="" style="rounded=1;whiteSpace=wrap;html=1;" vertex="1" parent="1">
          <mxGeometry x="120" y="350" width="10" height="10" as="geometry" />
        </mxCell>
        <mxCell id="dEg01nQ7GNnwLnujvM-Q-765" value="" style="rounded=1;whiteSpace=wrap;html=1;" vertex="1" parent="1">
          <mxGeometry x="130" y="350" width="10" height="10" as="geometry" />
        </mxCell>
        <mxCell id="dEg01nQ7GNnwLnujvM-Q-766" value="" style="rounded=1;whiteSpace=wrap;html=1;" vertex="1" parent="1">
          <mxGeometry x="120" y="340" width="10" height="10" as="geometry" />
        </mxCell>
        <mxCell id="dEg01nQ7GNnwLnujvM-Q-767" value="" style="rounded=1;whiteSpace=wrap;html=1;" vertex="1" parent="1">
          <mxGeometry x="130" y="340" width="10" height="10" as="geometry" />
        </mxCell>
        <mxCell id="dEg01nQ7GNnwLnujvM-Q-768" value="" style="rounded=1;whiteSpace=wrap;html=1;" vertex="1" parent="1">
          <mxGeometry x="120" y="330" width="10" height="10" as="geometry" />
        </mxCell>
        <mxCell id="dEg01nQ7GNnwLnujvM-Q-769" value="" style="rounded=1;whiteSpace=wrap;html=1;" vertex="1" parent="1">
          <mxGeometry x="130" y="330" width="10" height="10" as="geometry" />
        </mxCell>
        <mxCell id="dEg01nQ7GNnwLnujvM-Q-770" value="" style="rounded=1;whiteSpace=wrap;html=1;" vertex="1" parent="1">
          <mxGeometry x="130" y="320" width="10" height="10" as="geometry" />
        </mxCell>
        <mxCell id="dEg01nQ7GNnwLnujvM-Q-771" value="" style="rounded=1;whiteSpace=wrap;html=1;" vertex="1" parent="1">
          <mxGeometry x="120" y="320" width="10" height="10" as="geometry" />
        </mxCell>
        <mxCell id="dEg01nQ7GNnwLnujvM-Q-772" value="" style="rounded=1;whiteSpace=wrap;html=1;" vertex="1" parent="1">
          <mxGeometry x="140" y="360" width="10" height="10" as="geometry" />
        </mxCell>
        <mxCell id="dEg01nQ7GNnwLnujvM-Q-773" value="" style="rounded=1;whiteSpace=wrap;html=1;" vertex="1" parent="1">
          <mxGeometry x="150" y="360" width="10" height="10" as="geometry" />
        </mxCell>
        <mxCell id="dEg01nQ7GNnwLnujvM-Q-774" value="" style="rounded=1;whiteSpace=wrap;html=1;" vertex="1" parent="1">
          <mxGeometry x="140" y="350" width="10" height="10" as="geometry" />
        </mxCell>
        <mxCell id="dEg01nQ7GNnwLnujvM-Q-775" value="" style="rounded=1;whiteSpace=wrap;html=1;" vertex="1" parent="1">
          <mxGeometry x="150" y="350" width="10" height="10" as="geometry" />
        </mxCell>
        <mxCell id="dEg01nQ7GNnwLnujvM-Q-776" value="" style="rounded=1;whiteSpace=wrap;html=1;" vertex="1" parent="1">
          <mxGeometry x="140" y="340" width="10" height="10" as="geometry" />
        </mxCell>
        <mxCell id="dEg01nQ7GNnwLnujvM-Q-777" value="" style="rounded=1;whiteSpace=wrap;html=1;" vertex="1" parent="1">
          <mxGeometry x="150" y="340" width="10" height="10" as="geometry" />
        </mxCell>
        <mxCell id="dEg01nQ7GNnwLnujvM-Q-778" value="" style="rounded=1;whiteSpace=wrap;html=1;" vertex="1" parent="1">
          <mxGeometry x="140" y="330" width="10" height="10" as="geometry" />
        </mxCell>
        <mxCell id="dEg01nQ7GNnwLnujvM-Q-779" value="" style="rounded=1;whiteSpace=wrap;html=1;" vertex="1" parent="1">
          <mxGeometry x="150" y="330" width="10" height="10" as="geometry" />
        </mxCell>
        <mxCell id="dEg01nQ7GNnwLnujvM-Q-780" value="" style="rounded=1;whiteSpace=wrap;html=1;" vertex="1" parent="1">
          <mxGeometry x="150" y="320" width="10" height="10" as="geometry" />
        </mxCell>
        <mxCell id="dEg01nQ7GNnwLnujvM-Q-781" value="" style="rounded=1;whiteSpace=wrap;html=1;" vertex="1" parent="1">
          <mxGeometry x="140" y="320" width="10" height="10" as="geometry" />
        </mxCell>
        <mxCell id="dEg01nQ7GNnwLnujvM-Q-782" value="" style="rounded=1;whiteSpace=wrap;html=1;" vertex="1" parent="1">
          <mxGeometry x="160" y="360" width="10" height="10" as="geometry" />
        </mxCell>
        <mxCell id="dEg01nQ7GNnwLnujvM-Q-783" value="" style="rounded=1;whiteSpace=wrap;html=1;" vertex="1" parent="1">
          <mxGeometry x="170" y="360" width="10" height="10" as="geometry" />
        </mxCell>
        <mxCell id="dEg01nQ7GNnwLnujvM-Q-784" value="" style="rounded=1;whiteSpace=wrap;html=1;" vertex="1" parent="1">
          <mxGeometry x="160" y="350" width="10" height="10" as="geometry" />
        </mxCell>
        <mxCell id="dEg01nQ7GNnwLnujvM-Q-785" value="" style="rounded=1;whiteSpace=wrap;html=1;" vertex="1" parent="1">
          <mxGeometry x="170" y="350" width="10" height="10" as="geometry" />
        </mxCell>
        <mxCell id="dEg01nQ7GNnwLnujvM-Q-786" value="" style="rounded=1;whiteSpace=wrap;html=1;" vertex="1" parent="1">
          <mxGeometry x="160" y="340" width="10" height="10" as="geometry" />
        </mxCell>
        <mxCell id="dEg01nQ7GNnwLnujvM-Q-787" value="" style="rounded=1;whiteSpace=wrap;html=1;" vertex="1" parent="1">
          <mxGeometry x="170" y="340" width="10" height="10" as="geometry" />
        </mxCell>
        <mxCell id="dEg01nQ7GNnwLnujvM-Q-788" value="" style="rounded=1;whiteSpace=wrap;html=1;" vertex="1" parent="1">
          <mxGeometry x="160" y="330" width="10" height="10" as="geometry" />
        </mxCell>
        <mxCell id="dEg01nQ7GNnwLnujvM-Q-789" value="" style="rounded=1;whiteSpace=wrap;html=1;" vertex="1" parent="1">
          <mxGeometry x="170" y="330" width="10" height="10" as="geometry" />
        </mxCell>
        <mxCell id="dEg01nQ7GNnwLnujvM-Q-790" value="" style="rounded=1;whiteSpace=wrap;html=1;" vertex="1" parent="1">
          <mxGeometry x="170" y="320" width="10" height="10" as="geometry" />
        </mxCell>
        <mxCell id="dEg01nQ7GNnwLnujvM-Q-791" value="" style="rounded=1;whiteSpace=wrap;html=1;" vertex="1" parent="1">
          <mxGeometry x="160" y="320" width="10" height="10" as="geometry" />
        </mxCell>
        <mxCell id="dEg01nQ7GNnwLnujvM-Q-792" value="" style="rounded=1;whiteSpace=wrap;html=1;" vertex="1" parent="1">
          <mxGeometry x="180" y="360" width="10" height="10" as="geometry" />
        </mxCell>
        <mxCell id="dEg01nQ7GNnwLnujvM-Q-793" value="" style="rounded=1;whiteSpace=wrap;html=1;" vertex="1" parent="1">
          <mxGeometry x="190" y="360" width="10" height="10" as="geometry" />
        </mxCell>
        <mxCell id="dEg01nQ7GNnwLnujvM-Q-794" value="" style="rounded=1;whiteSpace=wrap;html=1;" vertex="1" parent="1">
          <mxGeometry x="180" y="350" width="10" height="10" as="geometry" />
        </mxCell>
        <mxCell id="dEg01nQ7GNnwLnujvM-Q-795" value="" style="rounded=1;whiteSpace=wrap;html=1;" vertex="1" parent="1">
          <mxGeometry x="190" y="350" width="10" height="10" as="geometry" />
        </mxCell>
        <mxCell id="dEg01nQ7GNnwLnujvM-Q-796" value="" style="rounded=1;whiteSpace=wrap;html=1;" vertex="1" parent="1">
          <mxGeometry x="180" y="340" width="10" height="10" as="geometry" />
        </mxCell>
        <mxCell id="dEg01nQ7GNnwLnujvM-Q-797" value="" style="rounded=1;whiteSpace=wrap;html=1;" vertex="1" parent="1">
          <mxGeometry x="190" y="340" width="10" height="10" as="geometry" />
        </mxCell>
        <mxCell id="dEg01nQ7GNnwLnujvM-Q-798" value="" style="rounded=1;whiteSpace=wrap;html=1;" vertex="1" parent="1">
          <mxGeometry x="180" y="330" width="10" height="10" as="geometry" />
        </mxCell>
        <mxCell id="dEg01nQ7GNnwLnujvM-Q-799" value="" style="rounded=1;whiteSpace=wrap;html=1;" vertex="1" parent="1">
          <mxGeometry x="190" y="330" width="10" height="10" as="geometry" />
        </mxCell>
        <mxCell id="dEg01nQ7GNnwLnujvM-Q-800" value="" style="rounded=1;whiteSpace=wrap;html=1;" vertex="1" parent="1">
          <mxGeometry x="190" y="320" width="10" height="10" as="geometry" />
        </mxCell>
        <mxCell id="dEg01nQ7GNnwLnujvM-Q-801" value="" style="rounded=1;whiteSpace=wrap;html=1;" vertex="1" parent="1">
          <mxGeometry x="180" y="320" width="10" height="10" as="geometry" />
        </mxCell>
        <mxCell id="dEg01nQ7GNnwLnujvM-Q-802" value="" style="rounded=1;whiteSpace=wrap;html=1;" vertex="1" parent="1">
          <mxGeometry x="200" y="360" width="10" height="10" as="geometry" />
        </mxCell>
        <mxCell id="dEg01nQ7GNnwLnujvM-Q-803" value="" style="rounded=1;whiteSpace=wrap;html=1;" vertex="1" parent="1">
          <mxGeometry x="210" y="360" width="10" height="10" as="geometry" />
        </mxCell>
        <mxCell id="dEg01nQ7GNnwLnujvM-Q-804" value="" style="rounded=1;whiteSpace=wrap;html=1;" vertex="1" parent="1">
          <mxGeometry x="200" y="350" width="10" height="10" as="geometry" />
        </mxCell>
        <mxCell id="dEg01nQ7GNnwLnujvM-Q-805" value="" style="rounded=1;whiteSpace=wrap;html=1;" vertex="1" parent="1">
          <mxGeometry x="210" y="350" width="10" height="10" as="geometry" />
        </mxCell>
        <mxCell id="dEg01nQ7GNnwLnujvM-Q-806" value="" style="rounded=1;whiteSpace=wrap;html=1;" vertex="1" parent="1">
          <mxGeometry x="200" y="340" width="10" height="10" as="geometry" />
        </mxCell>
        <mxCell id="dEg01nQ7GNnwLnujvM-Q-807" value="" style="rounded=1;whiteSpace=wrap;html=1;" vertex="1" parent="1">
          <mxGeometry x="210" y="340" width="10" height="10" as="geometry" />
        </mxCell>
        <mxCell id="dEg01nQ7GNnwLnujvM-Q-808" value="" style="rounded=1;whiteSpace=wrap;html=1;" vertex="1" parent="1">
          <mxGeometry x="200" y="330" width="10" height="10" as="geometry" />
        </mxCell>
        <mxCell id="dEg01nQ7GNnwLnujvM-Q-809" value="" style="rounded=1;whiteSpace=wrap;html=1;" vertex="1" parent="1">
          <mxGeometry x="210" y="330" width="10" height="10" as="geometry" />
        </mxCell>
        <mxCell id="dEg01nQ7GNnwLnujvM-Q-810" value="" style="rounded=1;whiteSpace=wrap;html=1;" vertex="1" parent="1">
          <mxGeometry x="210" y="320" width="10" height="10" as="geometry" />
        </mxCell>
        <mxCell id="dEg01nQ7GNnwLnujvM-Q-811" value="" style="rounded=1;whiteSpace=wrap;html=1;" vertex="1" parent="1">
          <mxGeometry x="200" y="320" width="10" height="10" as="geometry" />
        </mxCell>
        <mxCell id="dEg01nQ7GNnwLnujvM-Q-812" value="" style="rounded=1;whiteSpace=wrap;html=1;" vertex="1" parent="1">
          <mxGeometry x="220" y="360" width="10" height="10" as="geometry" />
        </mxCell>
        <mxCell id="dEg01nQ7GNnwLnujvM-Q-813" value="" style="rounded=1;whiteSpace=wrap;html=1;" vertex="1" parent="1">
          <mxGeometry x="230" y="360" width="10" height="10" as="geometry" />
        </mxCell>
        <mxCell id="dEg01nQ7GNnwLnujvM-Q-814" value="" style="rounded=1;whiteSpace=wrap;html=1;" vertex="1" parent="1">
          <mxGeometry x="220" y="350" width="10" height="10" as="geometry" />
        </mxCell>
        <mxCell id="dEg01nQ7GNnwLnujvM-Q-815" value="" style="rounded=1;whiteSpace=wrap;html=1;" vertex="1" parent="1">
          <mxGeometry x="230" y="350" width="10" height="10" as="geometry" />
        </mxCell>
        <mxCell id="dEg01nQ7GNnwLnujvM-Q-816" value="" style="rounded=1;whiteSpace=wrap;html=1;" vertex="1" parent="1">
          <mxGeometry x="220" y="340" width="10" height="10" as="geometry" />
        </mxCell>
        <mxCell id="dEg01nQ7GNnwLnujvM-Q-817" value="" style="rounded=1;whiteSpace=wrap;html=1;" vertex="1" parent="1">
          <mxGeometry x="230" y="340" width="10" height="10" as="geometry" />
        </mxCell>
        <mxCell id="dEg01nQ7GNnwLnujvM-Q-818" value="" style="rounded=1;whiteSpace=wrap;html=1;" vertex="1" parent="1">
          <mxGeometry x="220" y="330" width="10" height="10" as="geometry" />
        </mxCell>
        <mxCell id="dEg01nQ7GNnwLnujvM-Q-819" value="" style="rounded=1;whiteSpace=wrap;html=1;" vertex="1" parent="1">
          <mxGeometry x="230" y="330" width="10" height="10" as="geometry" />
        </mxCell>
        <mxCell id="dEg01nQ7GNnwLnujvM-Q-820" value="" style="rounded=1;whiteSpace=wrap;html=1;" vertex="1" parent="1">
          <mxGeometry x="230" y="320" width="10" height="10" as="geometry" />
        </mxCell>
        <mxCell id="dEg01nQ7GNnwLnujvM-Q-821" value="" style="rounded=1;whiteSpace=wrap;html=1;" vertex="1" parent="1">
          <mxGeometry x="220" y="320" width="10" height="10" as="geometry" />
        </mxCell>
        <mxCell id="dEg01nQ7GNnwLnujvM-Q-822" value="" style="rounded=1;whiteSpace=wrap;html=1;" vertex="1" parent="1">
          <mxGeometry x="240" y="360" width="10" height="10" as="geometry" />
        </mxCell>
        <mxCell id="dEg01nQ7GNnwLnujvM-Q-823" value="" style="rounded=1;whiteSpace=wrap;html=1;" vertex="1" parent="1">
          <mxGeometry x="250" y="360" width="10" height="10" as="geometry" />
        </mxCell>
        <mxCell id="dEg01nQ7GNnwLnujvM-Q-824" value="" style="rounded=1;whiteSpace=wrap;html=1;" vertex="1" parent="1">
          <mxGeometry x="240" y="350" width="10" height="10" as="geometry" />
        </mxCell>
        <mxCell id="dEg01nQ7GNnwLnujvM-Q-825" value="" style="rounded=1;whiteSpace=wrap;html=1;" vertex="1" parent="1">
          <mxGeometry x="250" y="350" width="10" height="10" as="geometry" />
        </mxCell>
        <mxCell id="dEg01nQ7GNnwLnujvM-Q-826" value="" style="rounded=1;whiteSpace=wrap;html=1;" vertex="1" parent="1">
          <mxGeometry x="240" y="340" width="10" height="10" as="geometry" />
        </mxCell>
        <mxCell id="dEg01nQ7GNnwLnujvM-Q-827" value="" style="rounded=1;whiteSpace=wrap;html=1;" vertex="1" parent="1">
          <mxGeometry x="250" y="340" width="10" height="10" as="geometry" />
        </mxCell>
        <mxCell id="dEg01nQ7GNnwLnujvM-Q-828" value="" style="rounded=1;whiteSpace=wrap;html=1;" vertex="1" parent="1">
          <mxGeometry x="240" y="330" width="10" height="10" as="geometry" />
        </mxCell>
        <mxCell id="dEg01nQ7GNnwLnujvM-Q-829" value="" style="rounded=1;whiteSpace=wrap;html=1;" vertex="1" parent="1">
          <mxGeometry x="250" y="330" width="10" height="10" as="geometry" />
        </mxCell>
        <mxCell id="dEg01nQ7GNnwLnujvM-Q-830" value="" style="rounded=1;whiteSpace=wrap;html=1;" vertex="1" parent="1">
          <mxGeometry x="250" y="320" width="10" height="10" as="geometry" />
        </mxCell>
        <mxCell id="dEg01nQ7GNnwLnujvM-Q-831" value="" style="rounded=1;whiteSpace=wrap;html=1;" vertex="1" parent="1">
          <mxGeometry x="240" y="320" width="10" height="10" as="geometry" />
        </mxCell>
        <mxCell id="dEg01nQ7GNnwLnujvM-Q-832" value="" style="rounded=1;whiteSpace=wrap;html=1;" vertex="1" parent="1">
          <mxGeometry x="260" y="360" width="10" height="10" as="geometry" />
        </mxCell>
        <mxCell id="dEg01nQ7GNnwLnujvM-Q-833" value="" style="rounded=1;whiteSpace=wrap;html=1;" vertex="1" parent="1">
          <mxGeometry x="270" y="360" width="10" height="10" as="geometry" />
        </mxCell>
        <mxCell id="dEg01nQ7GNnwLnujvM-Q-834" value="" style="rounded=1;whiteSpace=wrap;html=1;" vertex="1" parent="1">
          <mxGeometry x="260" y="350" width="10" height="10" as="geometry" />
        </mxCell>
        <mxCell id="dEg01nQ7GNnwLnujvM-Q-835" value="" style="rounded=1;whiteSpace=wrap;html=1;" vertex="1" parent="1">
          <mxGeometry x="270" y="350" width="10" height="10" as="geometry" />
        </mxCell>
        <mxCell id="dEg01nQ7GNnwLnujvM-Q-836" value="" style="rounded=1;whiteSpace=wrap;html=1;" vertex="1" parent="1">
          <mxGeometry x="260" y="340" width="10" height="10" as="geometry" />
        </mxCell>
        <mxCell id="dEg01nQ7GNnwLnujvM-Q-837" value="" style="rounded=1;whiteSpace=wrap;html=1;" vertex="1" parent="1">
          <mxGeometry x="270" y="340" width="10" height="10" as="geometry" />
        </mxCell>
        <mxCell id="dEg01nQ7GNnwLnujvM-Q-838" value="" style="rounded=1;whiteSpace=wrap;html=1;" vertex="1" parent="1">
          <mxGeometry x="260" y="330" width="10" height="10" as="geometry" />
        </mxCell>
        <mxCell id="dEg01nQ7GNnwLnujvM-Q-839" value="" style="rounded=1;whiteSpace=wrap;html=1;" vertex="1" parent="1">
          <mxGeometry x="270" y="330" width="10" height="10" as="geometry" />
        </mxCell>
        <mxCell id="dEg01nQ7GNnwLnujvM-Q-840" value="" style="rounded=1;whiteSpace=wrap;html=1;" vertex="1" parent="1">
          <mxGeometry x="270" y="320" width="10" height="10" as="geometry" />
        </mxCell>
        <mxCell id="dEg01nQ7GNnwLnujvM-Q-841" value="" style="rounded=1;whiteSpace=wrap;html=1;" vertex="1" parent="1">
          <mxGeometry x="260" y="320" width="10" height="10" as="geometry" />
        </mxCell>
        <mxCell id="dEg01nQ7GNnwLnujvM-Q-842" value="" style="rounded=1;whiteSpace=wrap;html=1;" vertex="1" parent="1">
          <mxGeometry x="280" y="360" width="10" height="10" as="geometry" />
        </mxCell>
        <mxCell id="dEg01nQ7GNnwLnujvM-Q-843" value="" style="rounded=1;whiteSpace=wrap;html=1;" vertex="1" parent="1">
          <mxGeometry x="290" y="360" width="10" height="10" as="geometry" />
        </mxCell>
        <mxCell id="dEg01nQ7GNnwLnujvM-Q-844" value="" style="rounded=1;whiteSpace=wrap;html=1;" vertex="1" parent="1">
          <mxGeometry x="280" y="350" width="10" height="10" as="geometry" />
        </mxCell>
        <mxCell id="dEg01nQ7GNnwLnujvM-Q-845" value="" style="rounded=1;whiteSpace=wrap;html=1;" vertex="1" parent="1">
          <mxGeometry x="290" y="350" width="10" height="10" as="geometry" />
        </mxCell>
        <mxCell id="dEg01nQ7GNnwLnujvM-Q-846" value="" style="rounded=1;whiteSpace=wrap;html=1;" vertex="1" parent="1">
          <mxGeometry x="280" y="340" width="10" height="10" as="geometry" />
        </mxCell>
        <mxCell id="dEg01nQ7GNnwLnujvM-Q-847" value="" style="rounded=1;whiteSpace=wrap;html=1;" vertex="1" parent="1">
          <mxGeometry x="290" y="340" width="10" height="10" as="geometry" />
        </mxCell>
        <mxCell id="dEg01nQ7GNnwLnujvM-Q-848" value="" style="rounded=1;whiteSpace=wrap;html=1;" vertex="1" parent="1">
          <mxGeometry x="280" y="330" width="10" height="10" as="geometry" />
        </mxCell>
        <mxCell id="dEg01nQ7GNnwLnujvM-Q-849" value="" style="rounded=1;whiteSpace=wrap;html=1;" vertex="1" parent="1">
          <mxGeometry x="290" y="330" width="10" height="10" as="geometry" />
        </mxCell>
        <mxCell id="dEg01nQ7GNnwLnujvM-Q-850" value="" style="rounded=1;whiteSpace=wrap;html=1;" vertex="1" parent="1">
          <mxGeometry x="290" y="320" width="10" height="10" as="geometry" />
        </mxCell>
        <mxCell id="dEg01nQ7GNnwLnujvM-Q-851" value="" style="rounded=1;whiteSpace=wrap;html=1;" vertex="1" parent="1">
          <mxGeometry x="280" y="320" width="10" height="10" as="geometry" />
        </mxCell>
        <mxCell id="dEg01nQ7GNnwLnujvM-Q-852" value="" style="rounded=1;whiteSpace=wrap;html=1;" vertex="1" parent="1">
          <mxGeometry x="300" y="360" width="10" height="10" as="geometry" />
        </mxCell>
        <mxCell id="dEg01nQ7GNnwLnujvM-Q-853" value="" style="rounded=1;whiteSpace=wrap;html=1;" vertex="1" parent="1">
          <mxGeometry x="310" y="360" width="10" height="10" as="geometry" />
        </mxCell>
        <mxCell id="dEg01nQ7GNnwLnujvM-Q-854" value="" style="rounded=1;whiteSpace=wrap;html=1;" vertex="1" parent="1">
          <mxGeometry x="300" y="350" width="10" height="10" as="geometry" />
        </mxCell>
        <mxCell id="dEg01nQ7GNnwLnujvM-Q-855" value="" style="rounded=1;whiteSpace=wrap;html=1;" vertex="1" parent="1">
          <mxGeometry x="310" y="350" width="10" height="10" as="geometry" />
        </mxCell>
        <mxCell id="dEg01nQ7GNnwLnujvM-Q-856" value="" style="rounded=1;whiteSpace=wrap;html=1;" vertex="1" parent="1">
          <mxGeometry x="300" y="340" width="10" height="10" as="geometry" />
        </mxCell>
        <mxCell id="dEg01nQ7GNnwLnujvM-Q-857" value="" style="rounded=1;whiteSpace=wrap;html=1;" vertex="1" parent="1">
          <mxGeometry x="310" y="340" width="10" height="10" as="geometry" />
        </mxCell>
        <mxCell id="dEg01nQ7GNnwLnujvM-Q-858" value="" style="rounded=1;whiteSpace=wrap;html=1;" vertex="1" parent="1">
          <mxGeometry x="300" y="330" width="10" height="10" as="geometry" />
        </mxCell>
        <mxCell id="dEg01nQ7GNnwLnujvM-Q-859" value="" style="rounded=1;whiteSpace=wrap;html=1;" vertex="1" parent="1">
          <mxGeometry x="310" y="330" width="10" height="10" as="geometry" />
        </mxCell>
        <mxCell id="dEg01nQ7GNnwLnujvM-Q-860" value="" style="rounded=1;whiteSpace=wrap;html=1;" vertex="1" parent="1">
          <mxGeometry x="310" y="320" width="10" height="10" as="geometry" />
        </mxCell>
        <mxCell id="dEg01nQ7GNnwLnujvM-Q-861" value="" style="rounded=1;whiteSpace=wrap;html=1;" vertex="1" parent="1">
          <mxGeometry x="300" y="320" width="10" height="10" as="geometry" />
        </mxCell>
        <mxCell id="dEg01nQ7GNnwLnujvM-Q-862" value="" style="rounded=1;whiteSpace=wrap;html=1;" vertex="1" parent="1">
          <mxGeometry x="320" y="360" width="10" height="10" as="geometry" />
        </mxCell>
        <mxCell id="dEg01nQ7GNnwLnujvM-Q-863" value="" style="rounded=1;whiteSpace=wrap;html=1;" vertex="1" parent="1">
          <mxGeometry x="330" y="360" width="10" height="10" as="geometry" />
        </mxCell>
        <mxCell id="dEg01nQ7GNnwLnujvM-Q-864" value="" style="rounded=1;whiteSpace=wrap;html=1;" vertex="1" parent="1">
          <mxGeometry x="320" y="350" width="10" height="10" as="geometry" />
        </mxCell>
        <mxCell id="dEg01nQ7GNnwLnujvM-Q-865" value="" style="rounded=1;whiteSpace=wrap;html=1;" vertex="1" parent="1">
          <mxGeometry x="330" y="350" width="10" height="10" as="geometry" />
        </mxCell>
        <mxCell id="dEg01nQ7GNnwLnujvM-Q-866" value="" style="rounded=1;whiteSpace=wrap;html=1;" vertex="1" parent="1">
          <mxGeometry x="320" y="340" width="10" height="10" as="geometry" />
        </mxCell>
        <mxCell id="dEg01nQ7GNnwLnujvM-Q-867" value="" style="rounded=1;whiteSpace=wrap;html=1;" vertex="1" parent="1">
          <mxGeometry x="330" y="340" width="10" height="10" as="geometry" />
        </mxCell>
        <mxCell id="dEg01nQ7GNnwLnujvM-Q-868" value="" style="rounded=1;whiteSpace=wrap;html=1;" vertex="1" parent="1">
          <mxGeometry x="320" y="330" width="10" height="10" as="geometry" />
        </mxCell>
        <mxCell id="dEg01nQ7GNnwLnujvM-Q-869" value="" style="rounded=1;whiteSpace=wrap;html=1;" vertex="1" parent="1">
          <mxGeometry x="330" y="330" width="10" height="10" as="geometry" />
        </mxCell>
        <mxCell id="dEg01nQ7GNnwLnujvM-Q-870" value="" style="rounded=1;whiteSpace=wrap;html=1;" vertex="1" parent="1">
          <mxGeometry x="330" y="320" width="10" height="10" as="geometry" />
        </mxCell>
        <mxCell id="dEg01nQ7GNnwLnujvM-Q-871" value="" style="rounded=1;whiteSpace=wrap;html=1;" vertex="1" parent="1">
          <mxGeometry x="320" y="320" width="10" height="10" as="geometry" />
        </mxCell>
        <mxCell id="dEg01nQ7GNnwLnujvM-Q-872" value="" style="rounded=1;whiteSpace=wrap;html=1;" vertex="1" parent="1">
          <mxGeometry x="340" y="360" width="10" height="10" as="geometry" />
        </mxCell>
        <mxCell id="dEg01nQ7GNnwLnujvM-Q-873" value="" style="rounded=1;whiteSpace=wrap;html=1;" vertex="1" parent="1">
          <mxGeometry x="350" y="360" width="10" height="10" as="geometry" />
        </mxCell>
        <mxCell id="dEg01nQ7GNnwLnujvM-Q-874" value="" style="rounded=1;whiteSpace=wrap;html=1;" vertex="1" parent="1">
          <mxGeometry x="340" y="350" width="10" height="10" as="geometry" />
        </mxCell>
        <mxCell id="dEg01nQ7GNnwLnujvM-Q-875" value="" style="rounded=1;whiteSpace=wrap;html=1;" vertex="1" parent="1">
          <mxGeometry x="350" y="350" width="10" height="10" as="geometry" />
        </mxCell>
        <mxCell id="dEg01nQ7GNnwLnujvM-Q-876" value="" style="rounded=1;whiteSpace=wrap;html=1;" vertex="1" parent="1">
          <mxGeometry x="340" y="340" width="10" height="10" as="geometry" />
        </mxCell>
        <mxCell id="dEg01nQ7GNnwLnujvM-Q-877" value="" style="rounded=1;whiteSpace=wrap;html=1;" vertex="1" parent="1">
          <mxGeometry x="350" y="340" width="10" height="10" as="geometry" />
        </mxCell>
        <mxCell id="dEg01nQ7GNnwLnujvM-Q-878" value="" style="rounded=1;whiteSpace=wrap;html=1;" vertex="1" parent="1">
          <mxGeometry x="340" y="330" width="10" height="10" as="geometry" />
        </mxCell>
        <mxCell id="dEg01nQ7GNnwLnujvM-Q-879" value="" style="rounded=1;whiteSpace=wrap;html=1;" vertex="1" parent="1">
          <mxGeometry x="350" y="330" width="10" height="10" as="geometry" />
        </mxCell>
        <mxCell id="dEg01nQ7GNnwLnujvM-Q-880" value="" style="rounded=1;whiteSpace=wrap;html=1;" vertex="1" parent="1">
          <mxGeometry x="350" y="320" width="10" height="10" as="geometry" />
        </mxCell>
        <mxCell id="dEg01nQ7GNnwLnujvM-Q-881" value="" style="rounded=1;whiteSpace=wrap;html=1;" vertex="1" parent="1">
          <mxGeometry x="340" y="320" width="10" height="10" as="geometry" />
        </mxCell>
        <mxCell id="dEg01nQ7GNnwLnujvM-Q-882" value="" style="rounded=1;whiteSpace=wrap;html=1;" vertex="1" parent="1">
          <mxGeometry x="360" y="360" width="10" height="10" as="geometry" />
        </mxCell>
        <mxCell id="dEg01nQ7GNnwLnujvM-Q-883" value="" style="rounded=1;whiteSpace=wrap;html=1;" vertex="1" parent="1">
          <mxGeometry x="370" y="360" width="10" height="10" as="geometry" />
        </mxCell>
        <mxCell id="dEg01nQ7GNnwLnujvM-Q-884" value="" style="rounded=1;whiteSpace=wrap;html=1;" vertex="1" parent="1">
          <mxGeometry x="360" y="350" width="10" height="10" as="geometry" />
        </mxCell>
        <mxCell id="dEg01nQ7GNnwLnujvM-Q-885" value="" style="rounded=1;whiteSpace=wrap;html=1;" vertex="1" parent="1">
          <mxGeometry x="370" y="350" width="10" height="10" as="geometry" />
        </mxCell>
        <mxCell id="dEg01nQ7GNnwLnujvM-Q-886" value="" style="rounded=1;whiteSpace=wrap;html=1;" vertex="1" parent="1">
          <mxGeometry x="360" y="340" width="10" height="10" as="geometry" />
        </mxCell>
        <mxCell id="dEg01nQ7GNnwLnujvM-Q-887" value="" style="rounded=1;whiteSpace=wrap;html=1;" vertex="1" parent="1">
          <mxGeometry x="370" y="340" width="10" height="10" as="geometry" />
        </mxCell>
        <mxCell id="dEg01nQ7GNnwLnujvM-Q-888" value="" style="rounded=1;whiteSpace=wrap;html=1;" vertex="1" parent="1">
          <mxGeometry x="360" y="330" width="10" height="10" as="geometry" />
        </mxCell>
        <mxCell id="dEg01nQ7GNnwLnujvM-Q-889" value="" style="rounded=1;whiteSpace=wrap;html=1;" vertex="1" parent="1">
          <mxGeometry x="370" y="330" width="10" height="10" as="geometry" />
        </mxCell>
        <mxCell id="dEg01nQ7GNnwLnujvM-Q-890" value="" style="rounded=1;whiteSpace=wrap;html=1;" vertex="1" parent="1">
          <mxGeometry x="370" y="320" width="10" height="10" as="geometry" />
        </mxCell>
        <mxCell id="dEg01nQ7GNnwLnujvM-Q-891" value="" style="rounded=1;whiteSpace=wrap;html=1;" vertex="1" parent="1">
          <mxGeometry x="360" y="320" width="10" height="10" as="geometry" />
        </mxCell>
        <mxCell id="dEg01nQ7GNnwLnujvM-Q-892" value="" style="rounded=1;whiteSpace=wrap;html=1;" vertex="1" parent="1">
          <mxGeometry x="380" y="360" width="10" height="10" as="geometry" />
        </mxCell>
        <mxCell id="dEg01nQ7GNnwLnujvM-Q-893" value="" style="rounded=1;whiteSpace=wrap;html=1;" vertex="1" parent="1">
          <mxGeometry x="390" y="360" width="10" height="10" as="geometry" />
        </mxCell>
        <mxCell id="dEg01nQ7GNnwLnujvM-Q-894" value="" style="rounded=1;whiteSpace=wrap;html=1;" vertex="1" parent="1">
          <mxGeometry x="380" y="350" width="10" height="10" as="geometry" />
        </mxCell>
        <mxCell id="dEg01nQ7GNnwLnujvM-Q-895" value="" style="rounded=1;whiteSpace=wrap;html=1;" vertex="1" parent="1">
          <mxGeometry x="390" y="350" width="10" height="10" as="geometry" />
        </mxCell>
        <mxCell id="dEg01nQ7GNnwLnujvM-Q-896" value="" style="rounded=1;whiteSpace=wrap;html=1;" vertex="1" parent="1">
          <mxGeometry x="380" y="340" width="10" height="10" as="geometry" />
        </mxCell>
        <mxCell id="dEg01nQ7GNnwLnujvM-Q-897" value="" style="rounded=1;whiteSpace=wrap;html=1;" vertex="1" parent="1">
          <mxGeometry x="390" y="340" width="10" height="10" as="geometry" />
        </mxCell>
        <mxCell id="dEg01nQ7GNnwLnujvM-Q-898" value="" style="rounded=1;whiteSpace=wrap;html=1;" vertex="1" parent="1">
          <mxGeometry x="380" y="330" width="10" height="10" as="geometry" />
        </mxCell>
        <mxCell id="dEg01nQ7GNnwLnujvM-Q-899" value="" style="rounded=1;whiteSpace=wrap;html=1;" vertex="1" parent="1">
          <mxGeometry x="390" y="330" width="10" height="10" as="geometry" />
        </mxCell>
        <mxCell id="dEg01nQ7GNnwLnujvM-Q-900" value="" style="rounded=1;whiteSpace=wrap;html=1;" vertex="1" parent="1">
          <mxGeometry x="390" y="320" width="10" height="10" as="geometry" />
        </mxCell>
        <mxCell id="dEg01nQ7GNnwLnujvM-Q-901" value="" style="rounded=1;whiteSpace=wrap;html=1;" vertex="1" parent="1">
          <mxGeometry x="380" y="320" width="10" height="10" as="geometry" />
        </mxCell>
        <mxCell id="dEg01nQ7GNnwLnujvM-Q-902" value="" style="rounded=1;whiteSpace=wrap;html=1;" vertex="1" parent="1">
          <mxGeometry x="400" y="360" width="10" height="10" as="geometry" />
        </mxCell>
        <mxCell id="dEg01nQ7GNnwLnujvM-Q-903" value="" style="rounded=1;whiteSpace=wrap;html=1;" vertex="1" parent="1">
          <mxGeometry x="410" y="360" width="10" height="10" as="geometry" />
        </mxCell>
        <mxCell id="dEg01nQ7GNnwLnujvM-Q-904" value="" style="rounded=1;whiteSpace=wrap;html=1;" vertex="1" parent="1">
          <mxGeometry x="400" y="350" width="10" height="10" as="geometry" />
        </mxCell>
        <mxCell id="dEg01nQ7GNnwLnujvM-Q-905" value="" style="rounded=1;whiteSpace=wrap;html=1;" vertex="1" parent="1">
          <mxGeometry x="410" y="350" width="10" height="10" as="geometry" />
        </mxCell>
        <mxCell id="dEg01nQ7GNnwLnujvM-Q-906" value="" style="rounded=1;whiteSpace=wrap;html=1;" vertex="1" parent="1">
          <mxGeometry x="400" y="340" width="10" height="10" as="geometry" />
        </mxCell>
        <mxCell id="dEg01nQ7GNnwLnujvM-Q-907" value="" style="rounded=1;whiteSpace=wrap;html=1;" vertex="1" parent="1">
          <mxGeometry x="410" y="340" width="10" height="10" as="geometry" />
        </mxCell>
        <mxCell id="dEg01nQ7GNnwLnujvM-Q-908" value="" style="rounded=1;whiteSpace=wrap;html=1;" vertex="1" parent="1">
          <mxGeometry x="400" y="330" width="10" height="10" as="geometry" />
        </mxCell>
        <mxCell id="dEg01nQ7GNnwLnujvM-Q-909" value="" style="rounded=1;whiteSpace=wrap;html=1;" vertex="1" parent="1">
          <mxGeometry x="410" y="330" width="10" height="10" as="geometry" />
        </mxCell>
        <mxCell id="dEg01nQ7GNnwLnujvM-Q-910" value="" style="rounded=1;whiteSpace=wrap;html=1;" vertex="1" parent="1">
          <mxGeometry x="410" y="320" width="10" height="10" as="geometry" />
        </mxCell>
        <mxCell id="dEg01nQ7GNnwLnujvM-Q-911" value="" style="rounded=1;whiteSpace=wrap;html=1;" vertex="1" parent="1">
          <mxGeometry x="400" y="320" width="10" height="10" as="geometry" />
        </mxCell>
        <mxCell id="dEg01nQ7GNnwLnujvM-Q-913" value="" style="rounded=1;whiteSpace=wrap;html=1;" vertex="1" parent="1">
          <mxGeometry x="180" y="120" width="10" height="10" as="geometry" />
        </mxCell>
        <mxCell id="dEg01nQ7GNnwLnujvM-Q-914" value="" style="rounded=1;whiteSpace=wrap;html=1;" vertex="1" parent="1">
          <mxGeometry x="190" y="90" width="10" height="10" as="geometry" />
        </mxCell>
        <mxCell id="dEg01nQ7GNnwLnujvM-Q-915" value="" style="rounded=1;whiteSpace=wrap;html=1;" vertex="1" parent="1">
          <mxGeometry x="200" y="90" width="10" height="10" as="geometry" />
        </mxCell>
        <mxCell id="dEg01nQ7GNnwLnujvM-Q-916" value="" style="rounded=1;whiteSpace=wrap;html=1;" vertex="1" parent="1">
          <mxGeometry x="190" y="80" width="10" height="10" as="geometry" />
        </mxCell>
        <mxCell id="dEg01nQ7GNnwLnujvM-Q-917" value="" style="rounded=1;whiteSpace=wrap;html=1;" vertex="1" parent="1">
          <mxGeometry x="200" y="80" width="10" height="10" as="geometry" />
        </mxCell>
        <mxCell id="dEg01nQ7GNnwLnujvM-Q-918" value="" style="rounded=1;whiteSpace=wrap;html=1;" vertex="1" parent="1">
          <mxGeometry x="190" y="70" width="10" height="10" as="geometry" />
        </mxCell>
        <mxCell id="dEg01nQ7GNnwLnujvM-Q-919" value="" style="rounded=1;whiteSpace=wrap;html=1;" vertex="1" parent="1">
          <mxGeometry x="200" y="70" width="10" height="10" as="geometry" />
        </mxCell>
        <mxCell id="dEg01nQ7GNnwLnujvM-Q-920" value="" style="rounded=1;whiteSpace=wrap;html=1;" vertex="1" parent="1">
          <mxGeometry x="190" y="60" width="10" height="10" as="geometry" />
        </mxCell>
        <mxCell id="dEg01nQ7GNnwLnujvM-Q-921" value="" style="rounded=1;whiteSpace=wrap;html=1;" vertex="1" parent="1">
          <mxGeometry x="200" y="60" width="10" height="10" as="geometry" />
        </mxCell>
        <mxCell id="dEg01nQ7GNnwLnujvM-Q-922" value="" style="rounded=1;whiteSpace=wrap;html=1;" vertex="1" parent="1">
          <mxGeometry x="200" y="50" width="10" height="10" as="geometry" />
        </mxCell>
        <mxCell id="dEg01nQ7GNnwLnujvM-Q-923" value="" style="rounded=1;whiteSpace=wrap;html=1;" vertex="1" parent="1">
          <mxGeometry x="190" y="50" width="10" height="10" as="geometry" />
        </mxCell>
        <mxCell id="dEg01nQ7GNnwLnujvM-Q-924" value="" style="rounded=1;whiteSpace=wrap;html=1;" vertex="1" parent="1">
          <mxGeometry x="210" y="90" width="10" height="10" as="geometry" />
        </mxCell>
        <mxCell id="dEg01nQ7GNnwLnujvM-Q-925" value="" style="rounded=1;whiteSpace=wrap;html=1;" vertex="1" parent="1">
          <mxGeometry x="220" y="90" width="10" height="10" as="geometry" />
        </mxCell>
        <mxCell id="dEg01nQ7GNnwLnujvM-Q-926" value="" style="rounded=1;whiteSpace=wrap;html=1;" vertex="1" parent="1">
          <mxGeometry x="210" y="80" width="10" height="10" as="geometry" />
        </mxCell>
        <mxCell id="dEg01nQ7GNnwLnujvM-Q-927" value="" style="rounded=1;whiteSpace=wrap;html=1;" vertex="1" parent="1">
          <mxGeometry x="220" y="80" width="10" height="10" as="geometry" />
        </mxCell>
        <mxCell id="dEg01nQ7GNnwLnujvM-Q-928" value="" style="rounded=1;whiteSpace=wrap;html=1;" vertex="1" parent="1">
          <mxGeometry x="210" y="70" width="10" height="10" as="geometry" />
        </mxCell>
        <mxCell id="dEg01nQ7GNnwLnujvM-Q-929" value="" style="rounded=1;whiteSpace=wrap;html=1;" vertex="1" parent="1">
          <mxGeometry x="220" y="70" width="10" height="10" as="geometry" />
        </mxCell>
        <mxCell id="dEg01nQ7GNnwLnujvM-Q-930" value="" style="rounded=1;whiteSpace=wrap;html=1;" vertex="1" parent="1">
          <mxGeometry x="210" y="60" width="10" height="10" as="geometry" />
        </mxCell>
        <mxCell id="dEg01nQ7GNnwLnujvM-Q-931" value="" style="rounded=1;whiteSpace=wrap;html=1;" vertex="1" parent="1">
          <mxGeometry x="220" y="60" width="10" height="10" as="geometry" />
        </mxCell>
        <mxCell id="dEg01nQ7GNnwLnujvM-Q-932" value="" style="rounded=1;whiteSpace=wrap;html=1;" vertex="1" parent="1">
          <mxGeometry x="220" y="50" width="10" height="10" as="geometry" />
        </mxCell>
        <mxCell id="dEg01nQ7GNnwLnujvM-Q-933" value="" style="rounded=1;whiteSpace=wrap;html=1;" vertex="1" parent="1">
          <mxGeometry x="210" y="50" width="10" height="10" as="geometry" />
        </mxCell>
        <mxCell id="dEg01nQ7GNnwLnujvM-Q-934" value="" style="rounded=1;whiteSpace=wrap;html=1;" vertex="1" parent="1">
          <mxGeometry x="230" y="90" width="10" height="10" as="geometry" />
        </mxCell>
        <mxCell id="dEg01nQ7GNnwLnujvM-Q-935" value="" style="rounded=1;whiteSpace=wrap;html=1;" vertex="1" parent="1">
          <mxGeometry x="240" y="90" width="10" height="10" as="geometry" />
        </mxCell>
        <mxCell id="dEg01nQ7GNnwLnujvM-Q-936" value="" style="rounded=1;whiteSpace=wrap;html=1;" vertex="1" parent="1">
          <mxGeometry x="230" y="80" width="10" height="10" as="geometry" />
        </mxCell>
        <mxCell id="dEg01nQ7GNnwLnujvM-Q-937" value="" style="rounded=1;whiteSpace=wrap;html=1;" vertex="1" parent="1">
          <mxGeometry x="240" y="80" width="10" height="10" as="geometry" />
        </mxCell>
        <mxCell id="dEg01nQ7GNnwLnujvM-Q-938" value="" style="rounded=1;whiteSpace=wrap;html=1;" vertex="1" parent="1">
          <mxGeometry x="230" y="70" width="10" height="10" as="geometry" />
        </mxCell>
        <mxCell id="dEg01nQ7GNnwLnujvM-Q-939" value="" style="rounded=1;whiteSpace=wrap;html=1;" vertex="1" parent="1">
          <mxGeometry x="240" y="70" width="10" height="10" as="geometry" />
        </mxCell>
        <mxCell id="dEg01nQ7GNnwLnujvM-Q-940" value="" style="rounded=1;whiteSpace=wrap;html=1;" vertex="1" parent="1">
          <mxGeometry x="230" y="60" width="10" height="10" as="geometry" />
        </mxCell>
        <mxCell id="dEg01nQ7GNnwLnujvM-Q-941" value="" style="rounded=1;whiteSpace=wrap;html=1;" vertex="1" parent="1">
          <mxGeometry x="240" y="60" width="10" height="10" as="geometry" />
        </mxCell>
        <mxCell id="dEg01nQ7GNnwLnujvM-Q-942" value="" style="rounded=1;whiteSpace=wrap;html=1;" vertex="1" parent="1">
          <mxGeometry x="240" y="50" width="10" height="10" as="geometry" />
        </mxCell>
        <mxCell id="dEg01nQ7GNnwLnujvM-Q-943" value="" style="rounded=1;whiteSpace=wrap;html=1;" vertex="1" parent="1">
          <mxGeometry x="230" y="50" width="10" height="10" as="geometry" />
        </mxCell>
        <mxCell id="dEg01nQ7GNnwLnujvM-Q-944" value="" style="rounded=1;whiteSpace=wrap;html=1;" vertex="1" parent="1">
          <mxGeometry x="250" y="90" width="10" height="10" as="geometry" />
        </mxCell>
        <mxCell id="dEg01nQ7GNnwLnujvM-Q-945" value="" style="rounded=1;whiteSpace=wrap;html=1;" vertex="1" parent="1">
          <mxGeometry x="260" y="90" width="10" height="10" as="geometry" />
        </mxCell>
        <mxCell id="dEg01nQ7GNnwLnujvM-Q-946" value="" style="rounded=1;whiteSpace=wrap;html=1;" vertex="1" parent="1">
          <mxGeometry x="250" y="80" width="10" height="10" as="geometry" />
        </mxCell>
        <mxCell id="dEg01nQ7GNnwLnujvM-Q-947" value="" style="rounded=1;whiteSpace=wrap;html=1;" vertex="1" parent="1">
          <mxGeometry x="260" y="80" width="10" height="10" as="geometry" />
        </mxCell>
        <mxCell id="dEg01nQ7GNnwLnujvM-Q-948" value="" style="rounded=1;whiteSpace=wrap;html=1;" vertex="1" parent="1">
          <mxGeometry x="250" y="70" width="10" height="10" as="geometry" />
        </mxCell>
        <mxCell id="dEg01nQ7GNnwLnujvM-Q-949" value="" style="rounded=1;whiteSpace=wrap;html=1;" vertex="1" parent="1">
          <mxGeometry x="260" y="70" width="10" height="10" as="geometry" />
        </mxCell>
        <mxCell id="dEg01nQ7GNnwLnujvM-Q-950" value="" style="rounded=1;whiteSpace=wrap;html=1;" vertex="1" parent="1">
          <mxGeometry x="250" y="60" width="10" height="10" as="geometry" />
        </mxCell>
        <mxCell id="dEg01nQ7GNnwLnujvM-Q-951" value="" style="rounded=1;whiteSpace=wrap;html=1;" vertex="1" parent="1">
          <mxGeometry x="260" y="60" width="10" height="10" as="geometry" />
        </mxCell>
        <mxCell id="dEg01nQ7GNnwLnujvM-Q-952" value="" style="rounded=1;whiteSpace=wrap;html=1;" vertex="1" parent="1">
          <mxGeometry x="260" y="50" width="10" height="10" as="geometry" />
        </mxCell>
        <mxCell id="dEg01nQ7GNnwLnujvM-Q-953" value="" style="rounded=1;whiteSpace=wrap;html=1;" vertex="1" parent="1">
          <mxGeometry x="250" y="50" width="10" height="10" as="geometry" />
        </mxCell>
        <mxCell id="dEg01nQ7GNnwLnujvM-Q-954" value="" style="rounded=1;whiteSpace=wrap;html=1;" vertex="1" parent="1">
          <mxGeometry x="270" y="90" width="10" height="10" as="geometry" />
        </mxCell>
        <mxCell id="dEg01nQ7GNnwLnujvM-Q-955" value="" style="rounded=1;whiteSpace=wrap;html=1;" vertex="1" parent="1">
          <mxGeometry x="280" y="90" width="10" height="10" as="geometry" />
        </mxCell>
        <mxCell id="dEg01nQ7GNnwLnujvM-Q-956" value="" style="rounded=1;whiteSpace=wrap;html=1;" vertex="1" parent="1">
          <mxGeometry x="270" y="80" width="10" height="10" as="geometry" />
        </mxCell>
        <mxCell id="dEg01nQ7GNnwLnujvM-Q-957" value="" style="rounded=1;whiteSpace=wrap;html=1;" vertex="1" parent="1">
          <mxGeometry x="280" y="80" width="10" height="10" as="geometry" />
        </mxCell>
        <mxCell id="dEg01nQ7GNnwLnujvM-Q-958" value="" style="rounded=1;whiteSpace=wrap;html=1;" vertex="1" parent="1">
          <mxGeometry x="270" y="70" width="10" height="10" as="geometry" />
        </mxCell>
        <mxCell id="dEg01nQ7GNnwLnujvM-Q-959" value="" style="rounded=1;whiteSpace=wrap;html=1;" vertex="1" parent="1">
          <mxGeometry x="280" y="70" width="10" height="10" as="geometry" />
        </mxCell>
        <mxCell id="dEg01nQ7GNnwLnujvM-Q-960" value="" style="rounded=1;whiteSpace=wrap;html=1;" vertex="1" parent="1">
          <mxGeometry x="270" y="60" width="10" height="10" as="geometry" />
        </mxCell>
        <mxCell id="dEg01nQ7GNnwLnujvM-Q-961" value="" style="rounded=1;whiteSpace=wrap;html=1;" vertex="1" parent="1">
          <mxGeometry x="280" y="60" width="10" height="10" as="geometry" />
        </mxCell>
        <mxCell id="dEg01nQ7GNnwLnujvM-Q-962" value="" style="rounded=1;whiteSpace=wrap;html=1;" vertex="1" parent="1">
          <mxGeometry x="280" y="50" width="10" height="10" as="geometry" />
        </mxCell>
        <mxCell id="dEg01nQ7GNnwLnujvM-Q-963" value="" style="rounded=1;whiteSpace=wrap;html=1;" vertex="1" parent="1">
          <mxGeometry x="270" y="50" width="10" height="10" as="geometry" />
        </mxCell>
        <mxCell id="dEg01nQ7GNnwLnujvM-Q-964" value="" style="rounded=1;whiteSpace=wrap;html=1;" vertex="1" parent="1">
          <mxGeometry x="290" y="90" width="10" height="10" as="geometry" />
        </mxCell>
        <mxCell id="dEg01nQ7GNnwLnujvM-Q-965" value="" style="rounded=1;whiteSpace=wrap;html=1;" vertex="1" parent="1">
          <mxGeometry x="300" y="90" width="10" height="10" as="geometry" />
        </mxCell>
        <mxCell id="dEg01nQ7GNnwLnujvM-Q-966" value="" style="rounded=1;whiteSpace=wrap;html=1;" vertex="1" parent="1">
          <mxGeometry x="290" y="80" width="10" height="10" as="geometry" />
        </mxCell>
        <mxCell id="dEg01nQ7GNnwLnujvM-Q-967" value="" style="rounded=1;whiteSpace=wrap;html=1;" vertex="1" parent="1">
          <mxGeometry x="300" y="80" width="10" height="10" as="geometry" />
        </mxCell>
        <mxCell id="dEg01nQ7GNnwLnujvM-Q-968" value="" style="rounded=1;whiteSpace=wrap;html=1;" vertex="1" parent="1">
          <mxGeometry x="290" y="70" width="10" height="10" as="geometry" />
        </mxCell>
        <mxCell id="dEg01nQ7GNnwLnujvM-Q-969" value="" style="rounded=1;whiteSpace=wrap;html=1;" vertex="1" parent="1">
          <mxGeometry x="300" y="70" width="10" height="10" as="geometry" />
        </mxCell>
        <mxCell id="dEg01nQ7GNnwLnujvM-Q-970" value="" style="rounded=1;whiteSpace=wrap;html=1;" vertex="1" parent="1">
          <mxGeometry x="290" y="60" width="10" height="10" as="geometry" />
        </mxCell>
        <mxCell id="dEg01nQ7GNnwLnujvM-Q-971" value="" style="rounded=1;whiteSpace=wrap;html=1;" vertex="1" parent="1">
          <mxGeometry x="300" y="60" width="10" height="10" as="geometry" />
        </mxCell>
        <mxCell id="dEg01nQ7GNnwLnujvM-Q-972" value="" style="rounded=1;whiteSpace=wrap;html=1;" vertex="1" parent="1">
          <mxGeometry x="300" y="50" width="10" height="10" as="geometry" />
        </mxCell>
        <mxCell id="dEg01nQ7GNnwLnujvM-Q-973" value="" style="rounded=1;whiteSpace=wrap;html=1;" vertex="1" parent="1">
          <mxGeometry x="290" y="50" width="10" height="10" as="geometry" />
        </mxCell>
        <mxCell id="dEg01nQ7GNnwLnujvM-Q-974" value="" style="rounded=1;whiteSpace=wrap;html=1;" vertex="1" parent="1">
          <mxGeometry x="310" y="90" width="10" height="10" as="geometry" />
        </mxCell>
        <mxCell id="dEg01nQ7GNnwLnujvM-Q-975" value="" style="rounded=1;whiteSpace=wrap;html=1;" vertex="1" parent="1">
          <mxGeometry x="320" y="90" width="10" height="10" as="geometry" />
        </mxCell>
        <mxCell id="dEg01nQ7GNnwLnujvM-Q-976" value="" style="rounded=1;whiteSpace=wrap;html=1;" vertex="1" parent="1">
          <mxGeometry x="310" y="80" width="10" height="10" as="geometry" />
        </mxCell>
        <mxCell id="dEg01nQ7GNnwLnujvM-Q-977" value="" style="rounded=1;whiteSpace=wrap;html=1;" vertex="1" parent="1">
          <mxGeometry x="320" y="80" width="10" height="10" as="geometry" />
        </mxCell>
        <mxCell id="dEg01nQ7GNnwLnujvM-Q-978" value="" style="rounded=1;whiteSpace=wrap;html=1;" vertex="1" parent="1">
          <mxGeometry x="310" y="70" width="10" height="10" as="geometry" />
        </mxCell>
        <mxCell id="dEg01nQ7GNnwLnujvM-Q-979" value="" style="rounded=1;whiteSpace=wrap;html=1;" vertex="1" parent="1">
          <mxGeometry x="320" y="70" width="10" height="10" as="geometry" />
        </mxCell>
        <mxCell id="dEg01nQ7GNnwLnujvM-Q-980" value="" style="rounded=1;whiteSpace=wrap;html=1;" vertex="1" parent="1">
          <mxGeometry x="310" y="60" width="10" height="10" as="geometry" />
        </mxCell>
        <mxCell id="dEg01nQ7GNnwLnujvM-Q-981" value="" style="rounded=1;whiteSpace=wrap;html=1;" vertex="1" parent="1">
          <mxGeometry x="320" y="60" width="10" height="10" as="geometry" />
        </mxCell>
        <mxCell id="dEg01nQ7GNnwLnujvM-Q-983" value="" style="rounded=1;whiteSpace=wrap;html=1;" vertex="1" parent="1">
          <mxGeometry x="310" y="50" width="10" height="10" as="geometry" />
        </mxCell>
        <mxCell id="dEg01nQ7GNnwLnujvM-Q-984" value="" style="rounded=1;whiteSpace=wrap;html=1;" vertex="1" parent="1">
          <mxGeometry x="190" y="190" width="10" height="10" as="geometry" />
        </mxCell>
        <mxCell id="dEg01nQ7GNnwLnujvM-Q-985" value="" style="rounded=1;whiteSpace=wrap;html=1;" vertex="1" parent="1">
          <mxGeometry x="200" y="190" width="10" height="10" as="geometry" />
        </mxCell>
        <mxCell id="dEg01nQ7GNnwLnujvM-Q-986" value="" style="rounded=1;whiteSpace=wrap;html=1;" vertex="1" parent="1">
          <mxGeometry x="190" y="180" width="10" height="10" as="geometry" />
        </mxCell>
        <mxCell id="dEg01nQ7GNnwLnujvM-Q-987" value="" style="rounded=1;whiteSpace=wrap;html=1;" vertex="1" parent="1">
          <mxGeometry x="200" y="180" width="10" height="10" as="geometry" />
        </mxCell>
        <mxCell id="dEg01nQ7GNnwLnujvM-Q-988" value="" style="rounded=1;whiteSpace=wrap;html=1;" vertex="1" parent="1">
          <mxGeometry x="190" y="170" width="10" height="10" as="geometry" />
        </mxCell>
        <mxCell id="dEg01nQ7GNnwLnujvM-Q-989" value="" style="rounded=1;whiteSpace=wrap;html=1;" vertex="1" parent="1">
          <mxGeometry x="200" y="170" width="10" height="10" as="geometry" />
        </mxCell>
        <mxCell id="dEg01nQ7GNnwLnujvM-Q-990" value="" style="rounded=1;whiteSpace=wrap;html=1;" vertex="1" parent="1">
          <mxGeometry x="190" y="160" width="10" height="10" as="geometry" />
        </mxCell>
        <mxCell id="dEg01nQ7GNnwLnujvM-Q-991" value="" style="rounded=1;whiteSpace=wrap;html=1;" vertex="1" parent="1">
          <mxGeometry x="200" y="160" width="10" height="10" as="geometry" />
        </mxCell>
        <mxCell id="dEg01nQ7GNnwLnujvM-Q-992" value="" style="rounded=1;whiteSpace=wrap;html=1;" vertex="1" parent="1">
          <mxGeometry x="200" y="150" width="10" height="10" as="geometry" />
        </mxCell>
        <mxCell id="dEg01nQ7GNnwLnujvM-Q-993" value="" style="rounded=1;whiteSpace=wrap;html=1;" vertex="1" parent="1">
          <mxGeometry x="190" y="150" width="10" height="10" as="geometry" />
        </mxCell>
        <mxCell id="dEg01nQ7GNnwLnujvM-Q-994" value="" style="rounded=1;whiteSpace=wrap;html=1;" vertex="1" parent="1">
          <mxGeometry x="210" y="190" width="10" height="10" as="geometry" />
        </mxCell>
        <mxCell id="dEg01nQ7GNnwLnujvM-Q-995" value="" style="rounded=1;whiteSpace=wrap;html=1;" vertex="1" parent="1">
          <mxGeometry x="220" y="190" width="10" height="10" as="geometry" />
        </mxCell>
        <mxCell id="dEg01nQ7GNnwLnujvM-Q-996" value="" style="rounded=1;whiteSpace=wrap;html=1;" vertex="1" parent="1">
          <mxGeometry x="210" y="180" width="10" height="10" as="geometry" />
        </mxCell>
        <mxCell id="dEg01nQ7GNnwLnujvM-Q-997" value="" style="rounded=1;whiteSpace=wrap;html=1;" vertex="1" parent="1">
          <mxGeometry x="220" y="180" width="10" height="10" as="geometry" />
        </mxCell>
        <mxCell id="dEg01nQ7GNnwLnujvM-Q-998" value="" style="rounded=1;whiteSpace=wrap;html=1;" vertex="1" parent="1">
          <mxGeometry x="210" y="170" width="10" height="10" as="geometry" />
        </mxCell>
        <mxCell id="dEg01nQ7GNnwLnujvM-Q-999" value="" style="rounded=1;whiteSpace=wrap;html=1;" vertex="1" parent="1">
          <mxGeometry x="220" y="170" width="10" height="10" as="geometry" />
        </mxCell>
        <mxCell id="dEg01nQ7GNnwLnujvM-Q-1000" value="" style="rounded=1;whiteSpace=wrap;html=1;" vertex="1" parent="1">
          <mxGeometry x="210" y="160" width="10" height="10" as="geometry" />
        </mxCell>
        <mxCell id="dEg01nQ7GNnwLnujvM-Q-1001" value="" style="rounded=1;whiteSpace=wrap;html=1;" vertex="1" parent="1">
          <mxGeometry x="220" y="160" width="10" height="10" as="geometry" />
        </mxCell>
        <mxCell id="dEg01nQ7GNnwLnujvM-Q-1002" value="" style="rounded=1;whiteSpace=wrap;html=1;" vertex="1" parent="1">
          <mxGeometry x="220" y="150" width="10" height="10" as="geometry" />
        </mxCell>
        <mxCell id="dEg01nQ7GNnwLnujvM-Q-1003" value="" style="rounded=1;whiteSpace=wrap;html=1;" vertex="1" parent="1">
          <mxGeometry x="210" y="150" width="10" height="10" as="geometry" />
        </mxCell>
        <mxCell id="dEg01nQ7GNnwLnujvM-Q-1004" value="" style="rounded=1;whiteSpace=wrap;html=1;" vertex="1" parent="1">
          <mxGeometry x="230" y="190" width="10" height="10" as="geometry" />
        </mxCell>
        <mxCell id="dEg01nQ7GNnwLnujvM-Q-1005" value="" style="rounded=1;whiteSpace=wrap;html=1;" vertex="1" parent="1">
          <mxGeometry x="240" y="190" width="10" height="10" as="geometry" />
        </mxCell>
        <mxCell id="dEg01nQ7GNnwLnujvM-Q-1006" value="" style="rounded=1;whiteSpace=wrap;html=1;" vertex="1" parent="1">
          <mxGeometry x="230" y="180" width="10" height="10" as="geometry" />
        </mxCell>
        <mxCell id="dEg01nQ7GNnwLnujvM-Q-1007" value="" style="rounded=1;whiteSpace=wrap;html=1;" vertex="1" parent="1">
          <mxGeometry x="240" y="180" width="10" height="10" as="geometry" />
        </mxCell>
        <mxCell id="dEg01nQ7GNnwLnujvM-Q-1008" value="" style="rounded=1;whiteSpace=wrap;html=1;" vertex="1" parent="1">
          <mxGeometry x="230" y="170" width="10" height="10" as="geometry" />
        </mxCell>
        <mxCell id="dEg01nQ7GNnwLnujvM-Q-1009" value="" style="rounded=1;whiteSpace=wrap;html=1;" vertex="1" parent="1">
          <mxGeometry x="240" y="170" width="10" height="10" as="geometry" />
        </mxCell>
        <mxCell id="dEg01nQ7GNnwLnujvM-Q-1010" value="" style="rounded=1;whiteSpace=wrap;html=1;" vertex="1" parent="1">
          <mxGeometry x="230" y="160" width="10" height="10" as="geometry" />
        </mxCell>
        <mxCell id="dEg01nQ7GNnwLnujvM-Q-1011" value="" style="rounded=1;whiteSpace=wrap;html=1;" vertex="1" parent="1">
          <mxGeometry x="240" y="160" width="10" height="10" as="geometry" />
        </mxCell>
        <mxCell id="dEg01nQ7GNnwLnujvM-Q-1012" value="" style="rounded=1;whiteSpace=wrap;html=1;" vertex="1" parent="1">
          <mxGeometry x="240" y="150" width="10" height="10" as="geometry" />
        </mxCell>
        <mxCell id="dEg01nQ7GNnwLnujvM-Q-1013" value="" style="rounded=1;whiteSpace=wrap;html=1;" vertex="1" parent="1">
          <mxGeometry x="230" y="150" width="10" height="10" as="geometry" />
        </mxCell>
        <mxCell id="dEg01nQ7GNnwLnujvM-Q-1014" value="" style="rounded=1;whiteSpace=wrap;html=1;" vertex="1" parent="1">
          <mxGeometry x="250" y="190" width="10" height="10" as="geometry" />
        </mxCell>
        <mxCell id="dEg01nQ7GNnwLnujvM-Q-1015" value="" style="rounded=1;whiteSpace=wrap;html=1;" vertex="1" parent="1">
          <mxGeometry x="260" y="190" width="10" height="10" as="geometry" />
        </mxCell>
        <mxCell id="dEg01nQ7GNnwLnujvM-Q-1016" value="" style="rounded=1;whiteSpace=wrap;html=1;" vertex="1" parent="1">
          <mxGeometry x="250" y="180" width="10" height="10" as="geometry" />
        </mxCell>
        <mxCell id="dEg01nQ7GNnwLnujvM-Q-1017" value="" style="rounded=1;whiteSpace=wrap;html=1;" vertex="1" parent="1">
          <mxGeometry x="260" y="180" width="10" height="10" as="geometry" />
        </mxCell>
        <mxCell id="dEg01nQ7GNnwLnujvM-Q-1018" value="" style="rounded=1;whiteSpace=wrap;html=1;" vertex="1" parent="1">
          <mxGeometry x="250" y="170" width="10" height="10" as="geometry" />
        </mxCell>
        <mxCell id="dEg01nQ7GNnwLnujvM-Q-1019" value="" style="rounded=1;whiteSpace=wrap;html=1;" vertex="1" parent="1">
          <mxGeometry x="260" y="170" width="10" height="10" as="geometry" />
        </mxCell>
        <mxCell id="dEg01nQ7GNnwLnujvM-Q-1020" value="" style="rounded=1;whiteSpace=wrap;html=1;" vertex="1" parent="1">
          <mxGeometry x="250" y="160" width="10" height="10" as="geometry" />
        </mxCell>
        <mxCell id="dEg01nQ7GNnwLnujvM-Q-1021" value="" style="rounded=1;whiteSpace=wrap;html=1;" vertex="1" parent="1">
          <mxGeometry x="260" y="160" width="10" height="10" as="geometry" />
        </mxCell>
        <mxCell id="dEg01nQ7GNnwLnujvM-Q-1022" value="" style="rounded=1;whiteSpace=wrap;html=1;" vertex="1" parent="1">
          <mxGeometry x="260" y="150" width="10" height="10" as="geometry" />
        </mxCell>
        <mxCell id="dEg01nQ7GNnwLnujvM-Q-1023" value="" style="rounded=1;whiteSpace=wrap;html=1;" vertex="1" parent="1">
          <mxGeometry x="250" y="150" width="10" height="10" as="geometry" />
        </mxCell>
        <mxCell id="dEg01nQ7GNnwLnujvM-Q-1024" value="" style="rounded=1;whiteSpace=wrap;html=1;" vertex="1" parent="1">
          <mxGeometry x="270" y="190" width="10" height="10" as="geometry" />
        </mxCell>
        <mxCell id="dEg01nQ7GNnwLnujvM-Q-1025" value="" style="rounded=1;whiteSpace=wrap;html=1;" vertex="1" parent="1">
          <mxGeometry x="280" y="190" width="10" height="10" as="geometry" />
        </mxCell>
        <mxCell id="dEg01nQ7GNnwLnujvM-Q-1026" value="" style="rounded=1;whiteSpace=wrap;html=1;" vertex="1" parent="1">
          <mxGeometry x="270" y="180" width="10" height="10" as="geometry" />
        </mxCell>
        <mxCell id="dEg01nQ7GNnwLnujvM-Q-1027" value="" style="rounded=1;whiteSpace=wrap;html=1;" vertex="1" parent="1">
          <mxGeometry x="280" y="180" width="10" height="10" as="geometry" />
        </mxCell>
        <mxCell id="dEg01nQ7GNnwLnujvM-Q-1028" value="" style="rounded=1;whiteSpace=wrap;html=1;" vertex="1" parent="1">
          <mxGeometry x="270" y="170" width="10" height="10" as="geometry" />
        </mxCell>
        <mxCell id="dEg01nQ7GNnwLnujvM-Q-1029" value="" style="rounded=1;whiteSpace=wrap;html=1;" vertex="1" parent="1">
          <mxGeometry x="280" y="170" width="10" height="10" as="geometry" />
        </mxCell>
        <mxCell id="dEg01nQ7GNnwLnujvM-Q-1030" value="" style="rounded=1;whiteSpace=wrap;html=1;" vertex="1" parent="1">
          <mxGeometry x="270" y="160" width="10" height="10" as="geometry" />
        </mxCell>
        <mxCell id="dEg01nQ7GNnwLnujvM-Q-1031" value="" style="rounded=1;whiteSpace=wrap;html=1;" vertex="1" parent="1">
          <mxGeometry x="280" y="160" width="10" height="10" as="geometry" />
        </mxCell>
        <mxCell id="dEg01nQ7GNnwLnujvM-Q-1032" value="" style="rounded=1;whiteSpace=wrap;html=1;" vertex="1" parent="1">
          <mxGeometry x="280" y="150" width="10" height="10" as="geometry" />
        </mxCell>
        <mxCell id="dEg01nQ7GNnwLnujvM-Q-1033" value="" style="rounded=1;whiteSpace=wrap;html=1;" vertex="1" parent="1">
          <mxGeometry x="270" y="150" width="10" height="10" as="geometry" />
        </mxCell>
        <mxCell id="dEg01nQ7GNnwLnujvM-Q-1034" value="" style="rounded=1;whiteSpace=wrap;html=1;" vertex="1" parent="1">
          <mxGeometry x="290" y="190" width="10" height="10" as="geometry" />
        </mxCell>
        <mxCell id="dEg01nQ7GNnwLnujvM-Q-1035" value="" style="rounded=1;whiteSpace=wrap;html=1;" vertex="1" parent="1">
          <mxGeometry x="300" y="190" width="10" height="10" as="geometry" />
        </mxCell>
        <mxCell id="dEg01nQ7GNnwLnujvM-Q-1036" value="" style="rounded=1;whiteSpace=wrap;html=1;" vertex="1" parent="1">
          <mxGeometry x="290" y="180" width="10" height="10" as="geometry" />
        </mxCell>
        <mxCell id="dEg01nQ7GNnwLnujvM-Q-1037" value="" style="rounded=1;whiteSpace=wrap;html=1;" vertex="1" parent="1">
          <mxGeometry x="300" y="180" width="10" height="10" as="geometry" />
        </mxCell>
        <mxCell id="dEg01nQ7GNnwLnujvM-Q-1038" value="" style="rounded=1;whiteSpace=wrap;html=1;" vertex="1" parent="1">
          <mxGeometry x="290" y="170" width="10" height="10" as="geometry" />
        </mxCell>
        <mxCell id="dEg01nQ7GNnwLnujvM-Q-1039" value="" style="rounded=1;whiteSpace=wrap;html=1;" vertex="1" parent="1">
          <mxGeometry x="300" y="170" width="10" height="10" as="geometry" />
        </mxCell>
        <mxCell id="dEg01nQ7GNnwLnujvM-Q-1040" value="" style="rounded=1;whiteSpace=wrap;html=1;" vertex="1" parent="1">
          <mxGeometry x="290" y="160" width="10" height="10" as="geometry" />
        </mxCell>
        <mxCell id="dEg01nQ7GNnwLnujvM-Q-1041" value="" style="rounded=1;whiteSpace=wrap;html=1;" vertex="1" parent="1">
          <mxGeometry x="300" y="160" width="10" height="10" as="geometry" />
        </mxCell>
        <mxCell id="dEg01nQ7GNnwLnujvM-Q-1042" value="" style="rounded=1;whiteSpace=wrap;html=1;" vertex="1" parent="1">
          <mxGeometry x="300" y="150" width="10" height="10" as="geometry" />
        </mxCell>
        <mxCell id="dEg01nQ7GNnwLnujvM-Q-1043" value="" style="rounded=1;whiteSpace=wrap;html=1;" vertex="1" parent="1">
          <mxGeometry x="290" y="150" width="10" height="10" as="geometry" />
        </mxCell>
        <mxCell id="dEg01nQ7GNnwLnujvM-Q-1044" value="" style="rounded=1;whiteSpace=wrap;html=1;" vertex="1" parent="1">
          <mxGeometry x="310" y="190" width="10" height="10" as="geometry" />
        </mxCell>
        <mxCell id="dEg01nQ7GNnwLnujvM-Q-1045" value="" style="rounded=1;whiteSpace=wrap;html=1;" vertex="1" parent="1">
          <mxGeometry x="320" y="190" width="10" height="10" as="geometry" />
        </mxCell>
        <mxCell id="dEg01nQ7GNnwLnujvM-Q-1046" value="" style="rounded=1;whiteSpace=wrap;html=1;" vertex="1" parent="1">
          <mxGeometry x="310" y="180" width="10" height="10" as="geometry" />
        </mxCell>
        <mxCell id="dEg01nQ7GNnwLnujvM-Q-1047" value="" style="rounded=1;whiteSpace=wrap;html=1;" vertex="1" parent="1">
          <mxGeometry x="320" y="180" width="10" height="10" as="geometry" />
        </mxCell>
        <mxCell id="dEg01nQ7GNnwLnujvM-Q-1048" value="" style="rounded=1;whiteSpace=wrap;html=1;" vertex="1" parent="1">
          <mxGeometry x="310" y="170" width="10" height="10" as="geometry" />
        </mxCell>
        <mxCell id="dEg01nQ7GNnwLnujvM-Q-1049" value="" style="rounded=1;whiteSpace=wrap;html=1;" vertex="1" parent="1">
          <mxGeometry x="320" y="170" width="10" height="10" as="geometry" />
        </mxCell>
        <mxCell id="dEg01nQ7GNnwLnujvM-Q-1050" value="" style="rounded=1;whiteSpace=wrap;html=1;" vertex="1" parent="1">
          <mxGeometry x="310" y="160" width="10" height="10" as="geometry" />
        </mxCell>
        <mxCell id="dEg01nQ7GNnwLnujvM-Q-1051" value="" style="rounded=1;whiteSpace=wrap;html=1;" vertex="1" parent="1">
          <mxGeometry x="320" y="160" width="10" height="10" as="geometry" />
        </mxCell>
        <mxCell id="dEg01nQ7GNnwLnujvM-Q-1052" value="" style="rounded=1;whiteSpace=wrap;html=1;" vertex="1" parent="1">
          <mxGeometry x="320" y="150" width="10" height="10" as="geometry" />
        </mxCell>
        <mxCell id="dEg01nQ7GNnwLnujvM-Q-1053" value="" style="rounded=1;whiteSpace=wrap;html=1;" vertex="1" parent="1">
          <mxGeometry x="310" y="150" width="10" height="10" as="geometry" />
        </mxCell>
        <mxCell id="dEg01nQ7GNnwLnujvM-Q-1054" value="" style="rounded=1;whiteSpace=wrap;html=1;" vertex="1" parent="1">
          <mxGeometry x="10" y="120" width="10" height="10" as="geometry" />
        </mxCell>
        <mxCell id="dEg01nQ7GNnwLnujvM-Q-1055" value="" style="rounded=1;whiteSpace=wrap;html=1;" vertex="1" parent="1">
          <mxGeometry x="20" y="90" width="10" height="10" as="geometry" />
        </mxCell>
        <mxCell id="dEg01nQ7GNnwLnujvM-Q-1056" value="" style="rounded=1;whiteSpace=wrap;html=1;" vertex="1" parent="1">
          <mxGeometry x="30" y="90" width="10" height="10" as="geometry" />
        </mxCell>
        <mxCell id="dEg01nQ7GNnwLnujvM-Q-1057" value="" style="rounded=1;whiteSpace=wrap;html=1;" vertex="1" parent="1">
          <mxGeometry x="20" y="80" width="10" height="10" as="geometry" />
        </mxCell>
        <mxCell id="dEg01nQ7GNnwLnujvM-Q-1058" value="" style="rounded=1;whiteSpace=wrap;html=1;" vertex="1" parent="1">
          <mxGeometry x="30" y="80" width="10" height="10" as="geometry" />
        </mxCell>
        <mxCell id="dEg01nQ7GNnwLnujvM-Q-1059" value="" style="rounded=1;whiteSpace=wrap;html=1;" vertex="1" parent="1">
          <mxGeometry x="20" y="70" width="10" height="10" as="geometry" />
        </mxCell>
        <mxCell id="dEg01nQ7GNnwLnujvM-Q-1060" value="" style="rounded=1;whiteSpace=wrap;html=1;" vertex="1" parent="1">
          <mxGeometry x="30" y="70" width="10" height="10" as="geometry" />
        </mxCell>
        <mxCell id="dEg01nQ7GNnwLnujvM-Q-1061" value="" style="rounded=1;whiteSpace=wrap;html=1;" vertex="1" parent="1">
          <mxGeometry x="20" y="60" width="10" height="10" as="geometry" />
        </mxCell>
        <mxCell id="dEg01nQ7GNnwLnujvM-Q-1062" value="" style="rounded=1;whiteSpace=wrap;html=1;" vertex="1" parent="1">
          <mxGeometry x="30" y="60" width="10" height="10" as="geometry" />
        </mxCell>
        <mxCell id="dEg01nQ7GNnwLnujvM-Q-1063" value="" style="rounded=1;whiteSpace=wrap;html=1;" vertex="1" parent="1">
          <mxGeometry x="30" y="50" width="10" height="10" as="geometry" />
        </mxCell>
        <mxCell id="dEg01nQ7GNnwLnujvM-Q-1064" value="" style="rounded=1;whiteSpace=wrap;html=1;" vertex="1" parent="1">
          <mxGeometry x="20" y="50" width="10" height="10" as="geometry" />
        </mxCell>
        <mxCell id="dEg01nQ7GNnwLnujvM-Q-1065" value="" style="rounded=1;whiteSpace=wrap;html=1;" vertex="1" parent="1">
          <mxGeometry x="40" y="90" width="10" height="10" as="geometry" />
        </mxCell>
        <mxCell id="dEg01nQ7GNnwLnujvM-Q-1066" value="" style="rounded=1;whiteSpace=wrap;html=1;" vertex="1" parent="1">
          <mxGeometry x="50" y="90" width="10" height="10" as="geometry" />
        </mxCell>
        <mxCell id="dEg01nQ7GNnwLnujvM-Q-1067" value="" style="rounded=1;whiteSpace=wrap;html=1;" vertex="1" parent="1">
          <mxGeometry x="40" y="80" width="10" height="10" as="geometry" />
        </mxCell>
        <mxCell id="dEg01nQ7GNnwLnujvM-Q-1068" value="" style="rounded=1;whiteSpace=wrap;html=1;" vertex="1" parent="1">
          <mxGeometry x="50" y="80" width="10" height="10" as="geometry" />
        </mxCell>
        <mxCell id="dEg01nQ7GNnwLnujvM-Q-1069" value="" style="rounded=1;whiteSpace=wrap;html=1;" vertex="1" parent="1">
          <mxGeometry x="40" y="70" width="10" height="10" as="geometry" />
        </mxCell>
        <mxCell id="dEg01nQ7GNnwLnujvM-Q-1070" value="" style="rounded=1;whiteSpace=wrap;html=1;" vertex="1" parent="1">
          <mxGeometry x="50" y="70" width="10" height="10" as="geometry" />
        </mxCell>
        <mxCell id="dEg01nQ7GNnwLnujvM-Q-1071" value="" style="rounded=1;whiteSpace=wrap;html=1;" vertex="1" parent="1">
          <mxGeometry x="40" y="60" width="10" height="10" as="geometry" />
        </mxCell>
        <mxCell id="dEg01nQ7GNnwLnujvM-Q-1072" value="" style="rounded=1;whiteSpace=wrap;html=1;" vertex="1" parent="1">
          <mxGeometry x="50" y="60" width="10" height="10" as="geometry" />
        </mxCell>
        <mxCell id="dEg01nQ7GNnwLnujvM-Q-1073" value="" style="rounded=1;whiteSpace=wrap;html=1;" vertex="1" parent="1">
          <mxGeometry x="50" y="50" width="10" height="10" as="geometry" />
        </mxCell>
        <mxCell id="dEg01nQ7GNnwLnujvM-Q-1074" value="" style="rounded=1;whiteSpace=wrap;html=1;" vertex="1" parent="1">
          <mxGeometry x="40" y="50" width="10" height="10" as="geometry" />
        </mxCell>
        <mxCell id="dEg01nQ7GNnwLnujvM-Q-1075" value="" style="rounded=1;whiteSpace=wrap;html=1;" vertex="1" parent="1">
          <mxGeometry x="60" y="90" width="10" height="10" as="geometry" />
        </mxCell>
        <mxCell id="dEg01nQ7GNnwLnujvM-Q-1076" value="" style="rounded=1;whiteSpace=wrap;html=1;" vertex="1" parent="1">
          <mxGeometry x="70" y="90" width="10" height="10" as="geometry" />
        </mxCell>
        <mxCell id="dEg01nQ7GNnwLnujvM-Q-1077" value="" style="rounded=1;whiteSpace=wrap;html=1;" vertex="1" parent="1">
          <mxGeometry x="60" y="80" width="10" height="10" as="geometry" />
        </mxCell>
        <mxCell id="dEg01nQ7GNnwLnujvM-Q-1078" value="" style="rounded=1;whiteSpace=wrap;html=1;" vertex="1" parent="1">
          <mxGeometry x="70" y="80" width="10" height="10" as="geometry" />
        </mxCell>
        <mxCell id="dEg01nQ7GNnwLnujvM-Q-1079" value="" style="rounded=1;whiteSpace=wrap;html=1;" vertex="1" parent="1">
          <mxGeometry x="60" y="70" width="10" height="10" as="geometry" />
        </mxCell>
        <mxCell id="dEg01nQ7GNnwLnujvM-Q-1080" value="" style="rounded=1;whiteSpace=wrap;html=1;" vertex="1" parent="1">
          <mxGeometry x="70" y="70" width="10" height="10" as="geometry" />
        </mxCell>
        <mxCell id="dEg01nQ7GNnwLnujvM-Q-1081" value="" style="rounded=1;whiteSpace=wrap;html=1;" vertex="1" parent="1">
          <mxGeometry x="60" y="60" width="10" height="10" as="geometry" />
        </mxCell>
        <mxCell id="dEg01nQ7GNnwLnujvM-Q-1082" value="" style="rounded=1;whiteSpace=wrap;html=1;" vertex="1" parent="1">
          <mxGeometry x="70" y="60" width="10" height="10" as="geometry" />
        </mxCell>
        <mxCell id="dEg01nQ7GNnwLnujvM-Q-1083" value="" style="rounded=1;whiteSpace=wrap;html=1;" vertex="1" parent="1">
          <mxGeometry x="70" y="50" width="10" height="10" as="geometry" />
        </mxCell>
        <mxCell id="dEg01nQ7GNnwLnujvM-Q-1084" value="" style="rounded=1;whiteSpace=wrap;html=1;" vertex="1" parent="1">
          <mxGeometry x="60" y="50" width="10" height="10" as="geometry" />
        </mxCell>
        <mxCell id="dEg01nQ7GNnwLnujvM-Q-1085" value="" style="rounded=1;whiteSpace=wrap;html=1;" vertex="1" parent="1">
          <mxGeometry x="80" y="90" width="10" height="10" as="geometry" />
        </mxCell>
        <mxCell id="dEg01nQ7GNnwLnujvM-Q-1086" value="" style="rounded=1;whiteSpace=wrap;html=1;" vertex="1" parent="1">
          <mxGeometry x="90" y="90" width="10" height="10" as="geometry" />
        </mxCell>
        <mxCell id="dEg01nQ7GNnwLnujvM-Q-1087" value="" style="rounded=1;whiteSpace=wrap;html=1;" vertex="1" parent="1">
          <mxGeometry x="80" y="80" width="10" height="10" as="geometry" />
        </mxCell>
        <mxCell id="dEg01nQ7GNnwLnujvM-Q-1088" value="" style="rounded=1;whiteSpace=wrap;html=1;" vertex="1" parent="1">
          <mxGeometry x="90" y="80" width="10" height="10" as="geometry" />
        </mxCell>
        <mxCell id="dEg01nQ7GNnwLnujvM-Q-1089" value="" style="rounded=1;whiteSpace=wrap;html=1;" vertex="1" parent="1">
          <mxGeometry x="80" y="70" width="10" height="10" as="geometry" />
        </mxCell>
        <mxCell id="dEg01nQ7GNnwLnujvM-Q-1090" value="" style="rounded=1;whiteSpace=wrap;html=1;" vertex="1" parent="1">
          <mxGeometry x="90" y="70" width="10" height="10" as="geometry" />
        </mxCell>
        <mxCell id="dEg01nQ7GNnwLnujvM-Q-1091" value="" style="rounded=1;whiteSpace=wrap;html=1;" vertex="1" parent="1">
          <mxGeometry x="80" y="60" width="10" height="10" as="geometry" />
        </mxCell>
        <mxCell id="dEg01nQ7GNnwLnujvM-Q-1092" value="" style="rounded=1;whiteSpace=wrap;html=1;" vertex="1" parent="1">
          <mxGeometry x="90" y="60" width="10" height="10" as="geometry" />
        </mxCell>
        <mxCell id="dEg01nQ7GNnwLnujvM-Q-1093" value="" style="rounded=1;whiteSpace=wrap;html=1;" vertex="1" parent="1">
          <mxGeometry x="90" y="50" width="10" height="10" as="geometry" />
        </mxCell>
        <mxCell id="dEg01nQ7GNnwLnujvM-Q-1094" value="" style="rounded=1;whiteSpace=wrap;html=1;" vertex="1" parent="1">
          <mxGeometry x="80" y="50" width="10" height="10" as="geometry" />
        </mxCell>
        <mxCell id="dEg01nQ7GNnwLnujvM-Q-1095" value="" style="rounded=1;whiteSpace=wrap;html=1;" vertex="1" parent="1">
          <mxGeometry x="100" y="90" width="10" height="10" as="geometry" />
        </mxCell>
        <mxCell id="dEg01nQ7GNnwLnujvM-Q-1096" value="" style="rounded=1;whiteSpace=wrap;html=1;" vertex="1" parent="1">
          <mxGeometry x="110" y="90" width="10" height="10" as="geometry" />
        </mxCell>
        <mxCell id="dEg01nQ7GNnwLnujvM-Q-1097" value="" style="rounded=1;whiteSpace=wrap;html=1;" vertex="1" parent="1">
          <mxGeometry x="100" y="80" width="10" height="10" as="geometry" />
        </mxCell>
        <mxCell id="dEg01nQ7GNnwLnujvM-Q-1098" value="" style="rounded=1;whiteSpace=wrap;html=1;" vertex="1" parent="1">
          <mxGeometry x="110" y="80" width="10" height="10" as="geometry" />
        </mxCell>
        <mxCell id="dEg01nQ7GNnwLnujvM-Q-1099" value="" style="rounded=1;whiteSpace=wrap;html=1;" vertex="1" parent="1">
          <mxGeometry x="100" y="70" width="10" height="10" as="geometry" />
        </mxCell>
        <mxCell id="dEg01nQ7GNnwLnujvM-Q-1100" value="" style="rounded=1;whiteSpace=wrap;html=1;" vertex="1" parent="1">
          <mxGeometry x="110" y="70" width="10" height="10" as="geometry" />
        </mxCell>
        <mxCell id="dEg01nQ7GNnwLnujvM-Q-1101" value="" style="rounded=1;whiteSpace=wrap;html=1;" vertex="1" parent="1">
          <mxGeometry x="100" y="60" width="10" height="10" as="geometry" />
        </mxCell>
        <mxCell id="dEg01nQ7GNnwLnujvM-Q-1102" value="" style="rounded=1;whiteSpace=wrap;html=1;" vertex="1" parent="1">
          <mxGeometry x="110" y="60" width="10" height="10" as="geometry" />
        </mxCell>
        <mxCell id="dEg01nQ7GNnwLnujvM-Q-1104" value="" style="rounded=1;whiteSpace=wrap;html=1;" vertex="1" parent="1">
          <mxGeometry x="100" y="50" width="10" height="10" as="geometry" />
        </mxCell>
        <mxCell id="dEg01nQ7GNnwLnujvM-Q-1105" value="" style="rounded=1;whiteSpace=wrap;html=1;" vertex="1" parent="1">
          <mxGeometry x="20" y="190" width="10" height="10" as="geometry" />
        </mxCell>
        <mxCell id="dEg01nQ7GNnwLnujvM-Q-1106" value="" style="rounded=1;whiteSpace=wrap;html=1;" vertex="1" parent="1">
          <mxGeometry x="30" y="190" width="10" height="10" as="geometry" />
        </mxCell>
        <mxCell id="dEg01nQ7GNnwLnujvM-Q-1107" value="" style="rounded=1;whiteSpace=wrap;html=1;" vertex="1" parent="1">
          <mxGeometry x="20" y="180" width="10" height="10" as="geometry" />
        </mxCell>
        <mxCell id="dEg01nQ7GNnwLnujvM-Q-1108" value="" style="rounded=1;whiteSpace=wrap;html=1;" vertex="1" parent="1">
          <mxGeometry x="30" y="180" width="10" height="10" as="geometry" />
        </mxCell>
        <mxCell id="dEg01nQ7GNnwLnujvM-Q-1109" value="" style="rounded=1;whiteSpace=wrap;html=1;" vertex="1" parent="1">
          <mxGeometry x="20" y="170" width="10" height="10" as="geometry" />
        </mxCell>
        <mxCell id="dEg01nQ7GNnwLnujvM-Q-1110" value="" style="rounded=1;whiteSpace=wrap;html=1;" vertex="1" parent="1">
          <mxGeometry x="30" y="170" width="10" height="10" as="geometry" />
        </mxCell>
        <mxCell id="dEg01nQ7GNnwLnujvM-Q-1111" value="" style="rounded=1;whiteSpace=wrap;html=1;" vertex="1" parent="1">
          <mxGeometry x="20" y="160" width="10" height="10" as="geometry" />
        </mxCell>
        <mxCell id="dEg01nQ7GNnwLnujvM-Q-1112" value="" style="rounded=1;whiteSpace=wrap;html=1;" vertex="1" parent="1">
          <mxGeometry x="30" y="160" width="10" height="10" as="geometry" />
        </mxCell>
        <mxCell id="dEg01nQ7GNnwLnujvM-Q-1113" value="" style="rounded=1;whiteSpace=wrap;html=1;" vertex="1" parent="1">
          <mxGeometry x="30" y="150" width="10" height="10" as="geometry" />
        </mxCell>
        <mxCell id="dEg01nQ7GNnwLnujvM-Q-1114" value="" style="rounded=1;whiteSpace=wrap;html=1;" vertex="1" parent="1">
          <mxGeometry x="20" y="150" width="10" height="10" as="geometry" />
        </mxCell>
        <mxCell id="dEg01nQ7GNnwLnujvM-Q-1115" value="" style="rounded=1;whiteSpace=wrap;html=1;" vertex="1" parent="1">
          <mxGeometry x="40" y="190" width="10" height="10" as="geometry" />
        </mxCell>
        <mxCell id="dEg01nQ7GNnwLnujvM-Q-1116" value="" style="rounded=1;whiteSpace=wrap;html=1;" vertex="1" parent="1">
          <mxGeometry x="50" y="190" width="10" height="10" as="geometry" />
        </mxCell>
        <mxCell id="dEg01nQ7GNnwLnujvM-Q-1117" value="" style="rounded=1;whiteSpace=wrap;html=1;" vertex="1" parent="1">
          <mxGeometry x="40" y="180" width="10" height="10" as="geometry" />
        </mxCell>
        <mxCell id="dEg01nQ7GNnwLnujvM-Q-1118" value="" style="rounded=1;whiteSpace=wrap;html=1;" vertex="1" parent="1">
          <mxGeometry x="50" y="180" width="10" height="10" as="geometry" />
        </mxCell>
        <mxCell id="dEg01nQ7GNnwLnujvM-Q-1119" value="" style="rounded=1;whiteSpace=wrap;html=1;" vertex="1" parent="1">
          <mxGeometry x="40" y="170" width="10" height="10" as="geometry" />
        </mxCell>
        <mxCell id="dEg01nQ7GNnwLnujvM-Q-1120" value="" style="rounded=1;whiteSpace=wrap;html=1;" vertex="1" parent="1">
          <mxGeometry x="50" y="170" width="10" height="10" as="geometry" />
        </mxCell>
        <mxCell id="dEg01nQ7GNnwLnujvM-Q-1121" value="" style="rounded=1;whiteSpace=wrap;html=1;" vertex="1" parent="1">
          <mxGeometry x="40" y="160" width="10" height="10" as="geometry" />
        </mxCell>
        <mxCell id="dEg01nQ7GNnwLnujvM-Q-1122" value="" style="rounded=1;whiteSpace=wrap;html=1;" vertex="1" parent="1">
          <mxGeometry x="50" y="160" width="10" height="10" as="geometry" />
        </mxCell>
        <mxCell id="dEg01nQ7GNnwLnujvM-Q-1123" value="" style="rounded=1;whiteSpace=wrap;html=1;" vertex="1" parent="1">
          <mxGeometry x="50" y="150" width="10" height="10" as="geometry" />
        </mxCell>
        <mxCell id="dEg01nQ7GNnwLnujvM-Q-1124" value="" style="rounded=1;whiteSpace=wrap;html=1;" vertex="1" parent="1">
          <mxGeometry x="40" y="150" width="10" height="10" as="geometry" />
        </mxCell>
        <mxCell id="dEg01nQ7GNnwLnujvM-Q-1125" value="" style="rounded=1;whiteSpace=wrap;html=1;" vertex="1" parent="1">
          <mxGeometry x="60" y="190" width="10" height="10" as="geometry" />
        </mxCell>
        <mxCell id="dEg01nQ7GNnwLnujvM-Q-1126" value="" style="rounded=1;whiteSpace=wrap;html=1;" vertex="1" parent="1">
          <mxGeometry x="70" y="190" width="10" height="10" as="geometry" />
        </mxCell>
        <mxCell id="dEg01nQ7GNnwLnujvM-Q-1127" value="" style="rounded=1;whiteSpace=wrap;html=1;" vertex="1" parent="1">
          <mxGeometry x="60" y="180" width="10" height="10" as="geometry" />
        </mxCell>
        <mxCell id="dEg01nQ7GNnwLnujvM-Q-1128" value="" style="rounded=1;whiteSpace=wrap;html=1;" vertex="1" parent="1">
          <mxGeometry x="70" y="180" width="10" height="10" as="geometry" />
        </mxCell>
        <mxCell id="dEg01nQ7GNnwLnujvM-Q-1129" value="" style="rounded=1;whiteSpace=wrap;html=1;" vertex="1" parent="1">
          <mxGeometry x="60" y="170" width="10" height="10" as="geometry" />
        </mxCell>
        <mxCell id="dEg01nQ7GNnwLnujvM-Q-1130" value="" style="rounded=1;whiteSpace=wrap;html=1;" vertex="1" parent="1">
          <mxGeometry x="70" y="170" width="10" height="10" as="geometry" />
        </mxCell>
        <mxCell id="dEg01nQ7GNnwLnujvM-Q-1131" value="" style="rounded=1;whiteSpace=wrap;html=1;" vertex="1" parent="1">
          <mxGeometry x="60" y="160" width="10" height="10" as="geometry" />
        </mxCell>
        <mxCell id="dEg01nQ7GNnwLnujvM-Q-1132" value="" style="rounded=1;whiteSpace=wrap;html=1;" vertex="1" parent="1">
          <mxGeometry x="70" y="160" width="10" height="10" as="geometry" />
        </mxCell>
        <mxCell id="dEg01nQ7GNnwLnujvM-Q-1133" value="" style="rounded=1;whiteSpace=wrap;html=1;" vertex="1" parent="1">
          <mxGeometry x="70" y="150" width="10" height="10" as="geometry" />
        </mxCell>
        <mxCell id="dEg01nQ7GNnwLnujvM-Q-1134" value="" style="rounded=1;whiteSpace=wrap;html=1;" vertex="1" parent="1">
          <mxGeometry x="60" y="150" width="10" height="10" as="geometry" />
        </mxCell>
        <mxCell id="dEg01nQ7GNnwLnujvM-Q-1135" value="" style="rounded=1;whiteSpace=wrap;html=1;" vertex="1" parent="1">
          <mxGeometry x="80" y="190" width="10" height="10" as="geometry" />
        </mxCell>
        <mxCell id="dEg01nQ7GNnwLnujvM-Q-1136" value="" style="rounded=1;whiteSpace=wrap;html=1;" vertex="1" parent="1">
          <mxGeometry x="90" y="190" width="10" height="10" as="geometry" />
        </mxCell>
        <mxCell id="dEg01nQ7GNnwLnujvM-Q-1137" value="" style="rounded=1;whiteSpace=wrap;html=1;" vertex="1" parent="1">
          <mxGeometry x="80" y="180" width="10" height="10" as="geometry" />
        </mxCell>
        <mxCell id="dEg01nQ7GNnwLnujvM-Q-1138" value="" style="rounded=1;whiteSpace=wrap;html=1;" vertex="1" parent="1">
          <mxGeometry x="90" y="180" width="10" height="10" as="geometry" />
        </mxCell>
        <mxCell id="dEg01nQ7GNnwLnujvM-Q-1139" value="" style="rounded=1;whiteSpace=wrap;html=1;" vertex="1" parent="1">
          <mxGeometry x="80" y="170" width="10" height="10" as="geometry" />
        </mxCell>
        <mxCell id="dEg01nQ7GNnwLnujvM-Q-1140" value="" style="rounded=1;whiteSpace=wrap;html=1;" vertex="1" parent="1">
          <mxGeometry x="90" y="170" width="10" height="10" as="geometry" />
        </mxCell>
        <mxCell id="dEg01nQ7GNnwLnujvM-Q-1141" value="" style="rounded=1;whiteSpace=wrap;html=1;" vertex="1" parent="1">
          <mxGeometry x="80" y="160" width="10" height="10" as="geometry" />
        </mxCell>
        <mxCell id="dEg01nQ7GNnwLnujvM-Q-1142" value="" style="rounded=1;whiteSpace=wrap;html=1;" vertex="1" parent="1">
          <mxGeometry x="90" y="160" width="10" height="10" as="geometry" />
        </mxCell>
        <mxCell id="dEg01nQ7GNnwLnujvM-Q-1143" value="" style="rounded=1;whiteSpace=wrap;html=1;" vertex="1" parent="1">
          <mxGeometry x="90" y="150" width="10" height="10" as="geometry" />
        </mxCell>
        <mxCell id="dEg01nQ7GNnwLnujvM-Q-1144" value="" style="rounded=1;whiteSpace=wrap;html=1;" vertex="1" parent="1">
          <mxGeometry x="80" y="150" width="10" height="10" as="geometry" />
        </mxCell>
        <mxCell id="dEg01nQ7GNnwLnujvM-Q-1145" value="" style="rounded=1;whiteSpace=wrap;html=1;" vertex="1" parent="1">
          <mxGeometry x="100" y="190" width="10" height="10" as="geometry" />
        </mxCell>
        <mxCell id="dEg01nQ7GNnwLnujvM-Q-1146" value="" style="rounded=1;whiteSpace=wrap;html=1;" vertex="1" parent="1">
          <mxGeometry x="110" y="190" width="10" height="10" as="geometry" />
        </mxCell>
        <mxCell id="dEg01nQ7GNnwLnujvM-Q-1147" value="" style="rounded=1;whiteSpace=wrap;html=1;" vertex="1" parent="1">
          <mxGeometry x="100" y="180" width="10" height="10" as="geometry" />
        </mxCell>
        <mxCell id="dEg01nQ7GNnwLnujvM-Q-1148" value="" style="rounded=1;whiteSpace=wrap;html=1;" vertex="1" parent="1">
          <mxGeometry x="110" y="180" width="10" height="10" as="geometry" />
        </mxCell>
        <mxCell id="dEg01nQ7GNnwLnujvM-Q-1149" value="" style="rounded=1;whiteSpace=wrap;html=1;" vertex="1" parent="1">
          <mxGeometry x="100" y="170" width="10" height="10" as="geometry" />
        </mxCell>
        <mxCell id="dEg01nQ7GNnwLnujvM-Q-1150" value="" style="rounded=1;whiteSpace=wrap;html=1;" vertex="1" parent="1">
          <mxGeometry x="110" y="170" width="10" height="10" as="geometry" />
        </mxCell>
        <mxCell id="dEg01nQ7GNnwLnujvM-Q-1151" value="" style="rounded=1;whiteSpace=wrap;html=1;" vertex="1" parent="1">
          <mxGeometry x="100" y="160" width="10" height="10" as="geometry" />
        </mxCell>
        <mxCell id="dEg01nQ7GNnwLnujvM-Q-1152" value="" style="rounded=1;whiteSpace=wrap;html=1;" vertex="1" parent="1">
          <mxGeometry x="110" y="160" width="10" height="10" as="geometry" />
        </mxCell>
        <mxCell id="dEg01nQ7GNnwLnujvM-Q-1153" value="" style="rounded=1;whiteSpace=wrap;html=1;" vertex="1" parent="1">
          <mxGeometry x="110" y="150" width="10" height="10" as="geometry" />
        </mxCell>
        <mxCell id="dEg01nQ7GNnwLnujvM-Q-1154" value="" style="rounded=1;whiteSpace=wrap;html=1;" vertex="1" parent="1">
          <mxGeometry x="100" y="150" width="10" height="10" as="geometry" />
        </mxCell>
        <mxCell id="dEg01nQ7GNnwLnujvM-Q-1155" value="" style="endArrow=none;html=1;rounded=0;" edge="1" parent="1">
          <mxGeometry width="50" height="50" relative="1" as="geometry">
            <mxPoint x="10" y="210" as="sourcePoint" />
            <mxPoint x="420" y="210" as="targetPoint" />
          </mxGeometry>
        </mxCell>
        <mxCell id="dEg01nQ7GNnwLnujvM-Q-1156" value="" style="endArrow=none;html=1;rounded=0;" edge="1" parent="1">
          <mxGeometry width="50" height="50" relative="1" as="geometry">
            <mxPoint x="150" y="210" as="sourcePoint" />
            <mxPoint x="150.74" y="50" as="targetPoint" />
          </mxGeometry>
        </mxCell>
        <mxCell id="dEg01nQ7GNnwLnujvM-Q-1157" value="&lt;font face=&quot;Georgia&quot;&gt;&lt;span style=&quot;font-size: 14px;&quot;&gt;Blank Parliament Chart&lt;/span&gt;&lt;/font&gt;" style="text;html=1;strokeColor=none;fillColor=none;align=center;verticalAlign=middle;whiteSpace=wrap;rounded=0;" vertex="1" parent="1">
          <mxGeometry x="10" y="10" width="150" height="30" as="geometry" />
        </mxCell>
      </root>
    </mxGraphModel>
  </diagram>
</mxfile>
